<svg width="14" height="14" viewBox="0 0 14 14" fill="none" xmlns="http://www.w3.org/2000/svg">
<path d="M10.0412 12.3267C9.5399 12.3267 8.83573 12.1454 7.78126 11.5563C6.49901 10.8372 5.50721 10.1734 4.23188 8.90139C3.00227 7.67255 2.40391 6.87695 1.56645 5.35304C0.620357 3.63241 0.781634 2.73049 0.961915 2.34502C1.17661 1.8843 1.49351 1.60874 1.90313 1.33524C2.13578 1.1828 2.38199 1.05213 2.63863 0.944884C2.66431 0.933842 2.6882 0.923312 2.70951 0.91381C2.83663 0.856542 3.02924 0.769996 3.27321 0.862448C3.43603 0.923569 3.58138 1.04864 3.80892 1.27335C4.27554 1.73355 4.9132 2.75848 5.14844 3.26183C5.30638 3.60108 5.4109 3.82501 5.41116 4.07617C5.41116 4.37022 5.26324 4.59699 5.08372 4.84173C5.05008 4.8877 5.0167 4.93161 4.98434 4.97424C4.78891 5.23105 4.74602 5.30527 4.77427 5.43778C4.83154 5.7041 5.25861 6.49687 5.96048 7.19719C6.66234 7.89752 7.43226 8.29763 7.6996 8.35464C7.83776 8.38417 7.91352 8.33949 8.17855 8.13712C8.21656 8.1081 8.25559 8.07805 8.29642 8.04801C8.57018 7.84436 8.78642 7.70029 9.07353 7.70029H9.07507C9.32495 7.70029 9.53887 7.80866 9.89327 7.9874C10.3555 8.22058 11.4113 8.85003 11.8743 9.31716C12.0995 9.54418 12.2251 9.68903 12.2865 9.85159C12.3789 10.0963 12.2919 10.2882 12.2351 10.4166C12.2256 10.4379 12.2151 10.4613 12.2041 10.4872C12.096 10.7434 11.9645 10.9891 11.8114 11.2212C11.5384 11.6295 11.2618 11.9456 10.8001 12.1606C10.563 12.2727 10.3035 12.3295 10.0412 12.3267Z" fill="white"/>
</svg>
