<svg width="14" height="14" viewBox="0 0 14 14" fill="none" xmlns="http://www.w3.org/2000/svg">
<path d="M10.8892 2.6387H2.2604C1.87911 2.63911 1.51355 2.79076 1.24394 3.06037C0.974322 3.32999 0.822673 3.69555 0.822266 4.07684V10.2403C0.822673 10.6216 0.974322 10.9871 1.24394 11.2568C1.51355 11.5264 1.87911 11.678 2.2604 11.6784H10.8892C11.2705 11.678 11.6361 11.5264 11.9057 11.2568C12.1753 10.9871 12.327 10.6216 12.3274 10.2403V4.07684C12.327 3.69555 12.1753 3.32999 11.9057 3.06037C11.6361 2.79076 11.2705 2.63911 10.8892 2.6387ZM10.5251 5.01754L6.82701 7.89382C6.7549 7.94988 6.66616 7.98031 6.57482 7.98031C6.48348 7.98031 6.39475 7.94988 6.32263 7.89382L2.62456 5.01754C2.58111 4.98473 2.54462 4.94361 2.5172 4.89657C2.48978 4.84953 2.47198 4.79751 2.46484 4.74354C2.4577 4.68956 2.46135 4.6347 2.47559 4.58215C2.48984 4.5296 2.51438 4.48041 2.5478 4.43742C2.58122 4.39444 2.62285 4.35853 2.67027 4.33177C2.71769 4.30502 2.76995 4.28795 2.82402 4.28157C2.87809 4.27519 2.93289 4.27962 2.98524 4.2946C3.03758 4.30958 3.08643 4.33481 3.12894 4.36883L6.57482 7.04891L10.0207 4.36883C10.1069 4.30376 10.2152 4.27523 10.3222 4.28939C10.4293 4.30355 10.5264 4.35928 10.5927 4.44452C10.659 4.52976 10.689 4.63767 10.6764 4.7449C10.6637 4.85213 10.6094 4.95007 10.5251 5.01754Z" fill="white"/>
</svg>
