<svg width="25" height="25" viewBox="0 0 25 25" fill="none" xmlns="http://www.w3.org/2000/svg">
<g clip-path="url(#clip0_3094_717)">
<path d="M24.5106 12.2553C24.5106 5.48696 19.0237 3.43323e-05 12.2553 3.43323e-05C5.48693 3.43323e-05 0 5.48696 0 12.2553C0 18.3723 4.48161 23.4424 10.3404 24.3618V15.7979H7.22871V12.2553H10.3404V9.55534C10.3404 6.48386 12.1701 4.78726 14.9695 4.78726C16.3103 4.78726 17.7127 5.02662 17.7127 5.02662V8.04258H16.1674C14.645 8.04258 14.1702 8.98729 14.1702 9.95651V12.2553H17.5691L17.0258 15.7979H14.1702V24.3618C20.029 23.4424 24.5106 18.3724 24.5106 12.2553Z" fill="#1877F2"/>
<path d="M17.0275 15.7979L17.5709 12.2553H14.172V9.9565C14.172 8.98718 14.6467 8.04256 16.1692 8.04256H17.7145V5.02661C17.7145 5.02661 16.312 4.78725 14.9711 4.78725C12.1718 4.78725 10.3422 6.48384 10.3422 9.55533V12.2553H7.23047V15.7979H10.3422V24.3617C10.9756 24.461 11.6159 24.5108 12.2571 24.5106C12.8983 24.5108 13.5385 24.461 14.172 24.3617V15.7979H17.0275Z" fill="white"/>
</g>
<defs>
<clipPath id="clip0_3094_717">
<rect width="24.5106" height="24.5106" fill="white"/>
</clipPath>
</defs>
</svg>
