<svg width="25" height="25" viewBox="0 0 25 25" fill="none" xmlns="http://www.w3.org/2000/svg">
<g clip-path="url(#clip0_3094_730)">
<path d="M18.765 3.05176e-05H5.7437C2.571 3.05176e-05 -0.000976562 2.57201 -0.000976562 5.7447V18.766C-0.000976562 21.9387 2.571 24.5106 5.7437 24.5106H18.765C21.9377 24.5106 24.5096 21.9387 24.5096 18.766V5.7447C24.5096 2.57201 21.9377 3.05176e-05 18.765 3.05176e-05Z" fill="#F4F2ED"/>
<path d="M3.98526 19.4399H7.03166V12.0414L2.67969 8.77748V18.1343C2.67969 18.8567 3.26507 19.4399 3.98526 19.4399Z" fill="#4285F4"/>
<path d="M17.4746 19.44H20.5211C21.2435 19.44 21.8267 18.8546 21.8267 18.1344V8.77748L17.4746 12.0415" fill="#34A853"/>
<path d="M17.4746 6.38387V12.0415L21.8267 8.77758V7.03656C21.8267 5.42202 19.9836 4.50154 18.6932 5.4699" fill="#FBBC04"/>
<path d="M7.0332 12.0415V6.3839L12.2556 10.3005L17.478 6.38371V12.0414L12.2556 15.9583" fill="#EA4335"/>
<path d="M2.67969 7.03656V8.77739L7.03166 12.0414V6.38387L5.81312 5.4699C4.52057 4.50154 2.67969 5.42202 2.67969 7.03656Z" fill="#C5221F"/>
</g>
<defs>
<clipPath id="clip0_3094_730">
<rect width="24.5106" height="24.5106" fill="white"/>
</clipPath>
</defs>
</svg>
