<svg width="25" height="25" viewBox="0 0 25 25" fill="none" xmlns="http://www.w3.org/2000/svg">
<g clip-path="url(#clip0_3094_720)">
<path d="M18.7659 6.10352e-05H5.74467C2.57198 6.10352e-05 0 2.57204 0 5.74473V18.766C0 21.9387 2.57198 24.5107 5.74467 24.5107H18.7659C21.9386 24.5107 24.5106 21.9387 24.5106 18.766V5.74473C24.5106 2.57204 21.9386 6.10352e-05 18.7659 6.10352e-05Z" fill="url(#paint0_radial_3094_720)"/>
<path d="M18.7659 6.10352e-05H5.74467C2.57198 6.10352e-05 0 2.57204 0 5.74473V18.766C0 21.9387 2.57198 24.5107 5.74467 24.5107H18.7659C21.9386 24.5107 24.5106 21.9387 24.5106 18.766V5.74473C24.5106 2.57204 21.9386 6.10352e-05 18.7659 6.10352e-05Z" fill="url(#paint1_radial_3094_720)"/>
<path d="M12.256 2.68089C9.65575 2.68089 9.32936 2.69228 8.30815 2.73872C7.28885 2.78544 6.59307 2.94677 5.98433 3.18354C5.35452 3.42808 4.82036 3.75523 4.28822 4.28757C3.75559 4.81982 3.42843 5.35398 3.18313 5.9835C2.94569 6.59243 2.78416 7.2885 2.7383 8.30731C2.69263 9.32862 2.68066 9.65511 2.68066 12.2554C2.68066 14.8558 2.69215 15.1811 2.73849 16.2023C2.78541 17.2216 2.94674 17.9174 3.18332 18.5261C3.42805 19.1559 3.75521 19.6901 4.28755 20.2222C4.8196 20.7549 5.35376 21.0828 5.98309 21.3273C6.59231 21.5641 7.28818 21.7254 8.30728 21.7722C9.32859 21.8186 9.6547 21.83 12.2548 21.83C14.8554 21.83 15.1807 21.8186 16.2019 21.7722C17.2212 21.7254 17.9177 21.5641 18.527 21.3273C19.1565 21.0828 19.6899 20.7549 20.2218 20.2222C20.7545 19.6901 21.0815 19.1559 21.3269 18.5264C21.5623 17.9174 21.7239 17.2214 21.7717 16.2025C21.8176 15.1813 21.8296 14.8558 21.8296 12.2554C21.8296 9.65511 21.8176 9.32881 21.7717 8.30751C21.7239 7.28821 21.5623 6.59253 21.3269 5.98379C21.0815 5.35398 20.7545 4.81982 20.2218 4.28757C19.6893 3.75504 19.1567 3.42788 18.5264 3.18364C17.916 2.94677 17.2199 2.78534 16.2006 2.73872C15.1793 2.69228 14.8541 2.68089 12.253 2.68089H12.256ZM11.3971 4.4063C11.652 4.40592 11.9365 4.4063 12.256 4.4063C14.8125 4.4063 15.1154 4.41549 16.1249 4.46135C17.0584 4.50405 17.5651 4.66002 17.9026 4.7911C18.3495 4.96458 18.668 5.17206 19.0029 5.50726C19.338 5.84237 19.5454 6.16149 19.7194 6.60833C19.8504 6.94535 20.0066 7.45203 20.0491 8.38554C20.095 9.39488 20.1049 9.698 20.1049 12.2532C20.1049 14.8085 20.095 15.1117 20.0491 16.1209C20.0064 17.0544 19.8504 17.5611 19.7194 17.8982C19.5459 18.3451 19.338 18.6632 19.0029 18.9982C18.6678 19.3333 18.3496 19.5406 17.9026 19.7142C17.5655 19.8459 17.0584 20.0015 16.1249 20.0442C15.1156 20.09 14.8125 20.1 12.256 20.1C9.69941 20.1 9.39638 20.09 8.38714 20.0442C7.45363 20.0011 6.94695 19.8451 6.60916 19.714C6.16242 19.5404 5.8432 19.3331 5.5081 18.998C5.17299 18.6629 4.96561 18.3445 4.79164 17.8975C4.66057 17.5604 4.50441 17.0537 4.4619 16.1202C4.41603 15.1108 4.40684 14.8077 4.40684 12.2508C4.40684 9.69398 4.41603 9.39248 4.4619 8.38314C4.5046 7.44963 4.66057 6.94295 4.79164 6.60545C4.96523 6.15861 5.17299 5.8395 5.50819 5.50439C5.84339 5.16929 6.16241 4.96181 6.60925 4.78794C6.94675 4.65629 7.45363 4.5007 8.38714 4.45781C9.27038 4.41788 9.61267 4.40591 11.3971 4.4039V4.4063ZM17.3668 5.99604C16.7325 5.99604 16.2179 6.51019 16.2179 7.14459C16.2179 7.7789 16.7325 8.29353 17.3668 8.29353C18.0011 8.29353 18.5158 7.7789 18.5158 7.14459C18.5158 6.51029 18.0011 5.99566 17.3668 5.99566V5.99604ZM12.256 7.33848C9.54067 7.33848 7.33912 9.54003 7.33912 12.2554C7.33912 14.9708 9.54067 17.1713 12.256 17.1713C14.9714 17.1713 17.1722 14.9708 17.1722 12.2554C17.1722 9.54012 14.9712 7.33848 12.2558 7.33848H12.256ZM12.256 9.06389C14.0185 9.06389 15.4475 10.4927 15.4475 12.2554C15.4475 14.018 14.0185 15.447 12.256 15.447C10.4934 15.447 9.06453 14.018 9.06453 12.2554C9.06453 10.4927 10.4933 9.06389 12.256 9.06389Z" fill="white"/>
</g>
<defs>
<radialGradient id="paint0_radial_3094_720" cx="0" cy="0" r="1" gradientUnits="userSpaceOnUse" gradientTransform="translate(6.51063 26.3985) rotate(-90) scale(24.2918 22.5933)">
<stop stop-color="#FFDD55"/>
<stop offset="0.1" stop-color="#FFDD55"/>
<stop offset="0.5" stop-color="#FF543E"/>
<stop offset="1" stop-color="#C837AB"/>
</radialGradient>
<radialGradient id="paint1_radial_3094_720" cx="0" cy="0" r="1" gradientUnits="userSpaceOnUse" gradientTransform="translate(-4.10562 1.76569) rotate(78.681) scale(10.8586 44.7594)">
<stop stop-color="#3771C8"/>
<stop offset="0.128" stop-color="#3771C8"/>
<stop offset="1" stop-color="#6600FF" stop-opacity="0"/>
</radialGradient>
<clipPath id="clip0_3094_720">
<rect width="24.5106" height="24.5106" fill="white"/>
</clipPath>
</defs>
</svg>
