<svg width="25" height="25" viewBox="0 0 25 25" fill="none" xmlns="http://www.w3.org/2000/svg">
<g clip-path="url(#clip0_3094_725)">
<path d="M18.763 7.62939e-05H5.74174C2.56905 7.62939e-05 -0.00292969 2.57205 -0.00292969 5.74475V18.766C-0.00292969 21.9387 2.56905 24.5107 5.74174 24.5107H18.763C21.9357 24.5107 24.5077 21.9387 24.5077 18.766V5.74475C24.5077 2.57205 21.9357 7.62939e-05 18.763 7.62939e-05Z" fill="white"/>
<path d="M18.763 7.62939e-05H5.74174C2.56905 7.62939e-05 -0.00292969 2.57205 -0.00292969 5.74475V18.766C-0.00292969 21.9387 2.56905 24.5107 5.74174 24.5107H18.763C21.9357 24.5107 24.5077 21.9387 24.5077 18.766V5.74475C24.5077 2.57205 21.9357 7.62939e-05 18.763 7.62939e-05Z" fill="#0A66C2"/>
<path d="M17.6839 20.8422H20.4863C20.5879 20.8422 20.6853 20.8019 20.7571 20.7301C20.8289 20.6583 20.8693 20.5609 20.8693 20.4593L20.8707 14.5383C20.8707 11.4436 20.2039 9.06479 16.5873 9.06479C15.2125 9.01366 13.916 9.72236 13.2164 10.9058C13.213 10.9115 13.2078 10.916 13.2016 10.9185C13.1954 10.921 13.1886 10.9214 13.1821 10.9197C13.1757 10.9179 13.1699 10.9141 13.1659 10.9088C13.1618 10.9035 13.1595 10.897 13.1595 10.8903V9.73347C13.1595 9.63189 13.1191 9.53448 13.0473 9.46266C12.9755 9.39084 12.8781 9.35049 12.7765 9.35049H10.117C10.0154 9.35049 9.91801 9.39084 9.84619 9.46266C9.77437 9.53448 9.73402 9.63189 9.73402 9.73347V20.4588C9.73402 20.5603 9.77437 20.6578 9.84619 20.7296C9.91801 20.8014 10.0154 20.8417 10.117 20.8417H12.9193C13.0208 20.8417 13.1182 20.8014 13.1901 20.7296C13.2619 20.6578 13.3022 20.5603 13.3022 20.4588V15.1571C13.3022 13.658 13.5866 12.2063 15.4451 12.2063C17.2772 12.2063 17.3009 13.9216 17.3009 15.2542V20.4592C17.3009 20.5608 17.3413 20.6582 17.4131 20.7301C17.4849 20.8019 17.5823 20.8422 17.6839 20.8422ZM3.63672 5.70913C3.63672 6.84504 4.57186 7.7797 5.70787 7.7797C6.84359 7.77961 7.77815 6.84437 7.77815 5.70865C7.77796 4.57293 6.8433 3.63837 5.70748 3.63837C4.57138 3.63837 3.63672 4.57322 3.63672 5.70913ZM4.30301 20.8422H7.10899C7.21056 20.8422 7.30798 20.8019 7.3798 20.7301C7.45162 20.6582 7.49197 20.5608 7.49197 20.4592V9.73347C7.49197 9.63189 7.45162 9.53448 7.3798 9.46266C7.30798 9.39084 7.21056 9.35049 7.10899 9.35049H4.30301C4.20143 9.35049 4.10402 9.39084 4.0322 9.46266C3.96038 9.53448 3.92003 9.63189 3.92003 9.73347V20.4592C3.92003 20.5608 3.96038 20.6582 4.0322 20.7301C4.10402 20.8019 4.20143 20.8422 4.30301 20.8422Z" fill="white"/>
</g>
<defs>
<clipPath id="clip0_3094_725">
<rect width="24.5106" height="24.5106" fill="white"/>
</clipPath>
</defs>
</svg>
