<svg width="13" height="14" viewBox="0 0 13 14" fill="none" xmlns="http://www.w3.org/2000/svg">
<path d="M11.1692 4.74628C10.6004 2.24378 8.41749 1.11711 6.49999 1.11711C6.49999 1.11711 6.49999 1.11711 6.49457 1.11711C4.58249 1.11711 2.39415 2.23836 1.8254 4.74086C1.19165 7.53586 3.12305 9.4578 4.45249 11.3925C5.02665 11.945 5.88595 13.4578 6.62262 13.4578C7.35928 13.4578 7.97332 11.945 8.54207 11.3925C9.62262 9.4578 11.8029 7.54128 11.1692 4.74628ZM6.49999 7.46003C5.55749 7.46003 4.79374 6.69628 4.79374 5.75378C4.79374 4.81128 5.55749 4.04753 6.49999 4.04753C7.44249 4.04753 8.20624 4.81128 8.20624 5.75378C8.20624 6.69628 7.44249 7.46003 6.49999 7.46003Z" fill="white"/>
</svg>
