<svg width="234" height="42" viewBox="0 0 234 42" fill="none" xmlns="http://www.w3.org/2000/svg">
<path d="M29.6681 0.670765L47.4014 18.9728L29.0993 36.7062L11.366 18.4041L29.6681 0.670765Z" fill="#10B981"/>
<path d="M0.569336 18.5886L18.5893 0.56871L36.6092 18.5886L18.5893 36.6086L0.569336 18.5886Z" fill="#2D4ED8"/>
<path d="M71.4925 34.1036C69.4765 34.1036 67.6045 33.7556 65.8765 33.0596C64.1485 32.3636 62.6365 31.3916 61.3405 30.1436C60.0685 28.8716 59.0725 27.3956 58.3525 25.7156C57.6325 24.0356 57.2725 22.2116 57.2725 20.2436C57.2725 18.2756 57.6205 16.4516 58.3165 14.7716C59.0365 13.0916 60.0325 11.6276 61.3045 10.3796C62.6005 9.1316 64.1125 8.1596 65.8405 7.4636C67.5685 6.7676 69.4525 6.4196 71.4925 6.4196C73.5325 6.4196 75.4165 6.7676 77.1445 7.4636C78.8725 8.1596 80.3725 9.1316 81.6445 10.3796C82.9405 11.6276 83.9365 13.0916 84.6325 14.7716C85.3525 16.4516 85.7125 18.2756 85.7125 20.2436C85.7125 22.2116 85.3525 24.0356 84.6325 25.7156C83.9125 27.3956 82.9045 28.8716 81.6085 30.1436C80.3365 31.3916 78.8365 32.3636 77.1085 33.0596C75.3805 33.7556 73.5085 34.1036 71.4925 34.1036ZM71.4925 29.0636C72.7165 29.0636 73.8445 28.8476 74.8765 28.4156C75.9325 27.9836 76.8565 27.3836 77.6485 26.6156C78.4405 25.8236 79.0525 24.8876 79.4845 23.8076C79.9165 22.7276 80.1325 21.5396 80.1325 20.2436C80.1325 18.9476 79.9165 17.7716 79.4845 16.7156C79.0525 15.6356 78.4405 14.6996 77.6485 13.9076C76.8565 13.1156 75.9325 12.5156 74.8765 12.1076C73.8445 11.6756 72.7165 11.4596 71.4925 11.4596C70.2685 11.4596 69.1285 11.6756 68.0725 12.1076C67.0405 12.5156 66.1285 13.1156 65.3365 13.9076C64.5445 14.6996 63.9325 15.6356 63.5005 16.7156C63.0685 17.7716 62.8525 18.9476 62.8525 20.2436C62.8525 21.5396 63.0685 22.7276 63.5005 23.8076C63.9325 24.8876 64.5445 25.8236 65.3365 26.6156C66.1285 27.3836 67.0405 27.9836 68.0725 28.4156C69.1285 28.8476 70.2685 29.0636 71.4925 29.0636ZM77.1805 36.9116L69.1885 22.9436H74.9485L83.0485 36.9116H77.1805ZM96.3299 34.1036C94.7459 34.1036 93.3899 33.7676 92.2619 33.0956C91.1579 32.3996 90.3179 31.4396 89.7419 30.2156C89.1659 28.9916 88.8779 27.5636 88.8779 25.9316V14.0156H94.2779V25.4996C94.2779 26.2436 94.4219 26.9036 94.7099 27.4796C95.0219 28.0316 95.4539 28.4636 96.0059 28.7756C96.5579 29.0876 97.1819 29.2436 97.8779 29.2436C98.5979 29.2436 99.2219 29.0876 99.7499 28.7756C100.302 28.4636 100.722 28.0316 101.01 27.4796C101.322 26.9036 101.478 26.2436 101.478 25.4996V14.0156H106.878V33.6716H101.838V29.7836L102.126 30.6476C101.67 31.8236 100.926 32.6996 99.8939 33.2756C98.8859 33.8276 97.6979 34.1036 96.3299 34.1036ZM110.825 33.6716V14.0156H116.225V33.6716H110.825ZM110.825 12.2516V6.8516H116.225V12.2516H110.825ZM129.824 34.1036C127.856 34.1036 126.08 33.6596 124.496 32.7716C122.936 31.8596 121.688 30.6236 120.752 29.0636C119.84 27.5036 119.384 25.7516 119.384 23.8076C119.384 21.8636 119.84 20.1236 120.752 18.5876C121.664 17.0276 122.912 15.8036 124.496 14.9156C126.08 14.0276 127.856 13.5836 129.824 13.5836C131.288 13.5836 132.644 13.8356 133.892 14.3396C135.14 14.8436 136.208 15.5516 137.096 16.4636C137.984 17.3516 138.62 18.4076 139.004 19.6316L134.324 21.6476C133.988 20.6636 133.412 19.8836 132.596 19.3076C131.804 18.7316 130.88 18.4436 129.824 18.4436C128.888 18.4436 128.048 18.6716 127.304 19.1276C126.584 19.5836 126.008 20.2196 125.576 21.0356C125.168 21.8516 124.964 22.7876 124.964 23.8436C124.964 24.8996 125.168 25.8356 125.576 26.6516C126.008 27.4676 126.584 28.1036 127.304 28.5596C128.048 29.0156 128.888 29.2436 129.824 29.2436C130.904 29.2436 131.84 28.9556 132.632 28.3796C133.424 27.8036 133.988 27.0236 134.324 26.0396L139.004 28.0916C138.644 29.2436 138.02 30.2756 137.132 31.1876C136.244 32.0996 135.176 32.8196 133.928 33.3476C132.68 33.8516 131.312 34.1036 129.824 34.1036ZM142.184 33.6716V6.4196H147.584V23.8796L145.568 23.2316L154.244 14.0156H160.904L153.776 21.9356L160.868 33.6716H154.748L148.808 23.6996L151.94 22.9076L145.928 29.4596L147.584 26.3276V33.6716H142.184ZM170.143 33.6716V6.8516H180.439C182.287 6.8516 183.919 7.1756 185.335 7.8236C186.775 8.4716 187.903 9.4316 188.719 10.7036C189.535 11.9756 189.943 13.5476 189.943 15.4196C189.943 17.2436 189.523 18.7916 188.683 20.0636C187.867 21.3356 186.739 22.3076 185.299 22.9796C183.883 23.6276 182.263 23.9516 180.439 23.9516H175.723V33.6716H170.143ZM175.723 19.0916H180.475C181.267 19.0916 181.951 18.9356 182.527 18.6236C183.103 18.3116 183.547 17.8796 183.859 17.3276C184.195 16.7756 184.363 16.1396 184.363 15.4196C184.363 14.6756 184.195 14.0276 183.859 13.4756C183.547 12.9236 183.103 12.4916 182.527 12.1796C181.951 11.8676 181.267 11.7116 180.475 11.7116H175.723V19.0916ZM198.12 34.1036C196.704 34.1036 195.48 33.8756 194.448 33.4196C193.416 32.9636 192.624 32.3156 192.072 31.4756C191.52 30.6116 191.244 29.5916 191.244 28.4156C191.244 27.3116 191.496 26.3396 192 25.4996C192.504 24.6356 193.272 23.9156 194.304 23.3396C195.36 22.7636 196.668 22.3556 198.228 22.1156L204.24 21.1436V25.1036L199.2 26.0036C198.432 26.1476 197.844 26.3996 197.436 26.7596C197.028 27.0956 196.824 27.5876 196.824 28.2356C196.824 28.8356 197.052 29.3036 197.508 29.6396C197.964 29.9756 198.528 30.1436 199.2 30.1436C200.088 30.1436 200.868 29.9516 201.54 29.5676C202.212 29.1836 202.728 28.6676 203.088 28.0196C203.472 27.3476 203.664 26.6156 203.664 25.8236V20.7116C203.664 19.9676 203.364 19.3436 202.764 18.8396C202.188 18.3356 201.396 18.0836 200.388 18.0836C199.428 18.0836 198.576 18.3476 197.832 18.8756C197.112 19.4036 196.584 20.0996 196.248 20.9636L191.928 18.9116C192.312 17.8076 192.924 16.8596 193.764 16.0676C194.604 15.2756 195.612 14.6636 196.788 14.2316C197.964 13.7996 199.248 13.5836 200.64 13.5836C202.296 13.5836 203.76 13.8836 205.032 14.4836C206.304 15.0836 207.288 15.9236 207.984 17.0036C208.704 18.0596 209.064 19.2956 209.064 20.7116V33.6716H204.024V30.5036L205.248 30.2876C204.672 31.1516 204.036 31.8716 203.34 32.4476C202.644 32.9996 201.864 33.4076 201 33.6716C200.136 33.9596 199.176 34.1036 198.12 34.1036ZM216.084 41.5916C215.508 41.5916 214.944 41.5436 214.392 41.4476C213.864 41.3516 213.396 41.1956 212.988 40.9796V36.5516C213.324 36.6476 213.72 36.7316 214.176 36.8036C214.632 36.8756 215.052 36.9116 215.436 36.9116C216.492 36.9116 217.248 36.6596 217.704 36.1556C218.16 35.6756 218.532 35.1236 218.82 34.4996L220.152 31.4396L220.08 35.9396L211.44 14.0156H217.236L222.96 29.6036H220.8L226.524 14.0156H232.32L223.896 35.5076C223.368 36.8516 222.72 37.9796 221.952 38.8916C221.184 39.8036 220.308 40.4756 219.324 40.9076C218.364 41.3636 217.284 41.5916 216.084 41.5916Z" fill="white"/>
</svg>
