<svg width="25" height="25" viewBox="0 0 25 25" fill="none" xmlns="http://www.w3.org/2000/svg">
<g clip-path="url(#clip0_3094_738)">
<path d="M0.524398 12.1087C0.523824 14.168 1.06612 16.1788 2.09729 17.9512L0.425781 24.0069L6.67139 22.3819C8.39885 23.315 10.3343 23.804 12.3012 23.8041H12.3063C18.7993 23.8041 24.0846 18.5616 24.0874 12.1179C24.0887 8.99543 22.8643 6.05929 20.6398 3.85029C18.4156 1.64149 15.4576 0.424414 12.3059 0.422989C5.81218 0.422989 0.527175 5.66522 0.524494 12.1087" fill="url(#paint0_linear_3094_738)"/>
<path d="M0.102447 12.1049C0.101776 14.2383 0.66351 16.3211 1.73144 18.1569L0 24.4296L6.46956 22.7464C8.25213 23.7108 10.2591 24.2193 12.3014 24.22H12.3066C19.0325 24.22 24.5077 18.7889 24.5106 12.1145C24.5118 8.8799 23.2433 5.83821 20.9393 3.55008C18.6351 1.26223 15.5712 0.00136055 12.3066 3.05176e-05C5.57961 3.05176e-05 0.105128 5.43037 0.102447 12.1049ZM3.9553 17.8407L3.71374 17.4602C2.69827 15.8581 2.1623 14.0067 2.16306 12.1056C2.16517 6.55795 6.71533 2.04448 12.3105 2.04448C15.02 2.04562 17.5664 3.09369 19.4817 4.99525C21.3969 6.89701 22.4508 9.42502 22.4501 12.1138C22.4476 17.6614 17.8973 22.1755 12.3066 22.1755H12.3026C10.4822 22.1745 8.69686 21.6894 7.13986 20.7728L6.76933 20.5547L2.93017 21.5535L3.9553 17.8407Z" fill="url(#paint1_linear_3094_738)"/>
<path d="M9.25838 7.04421C9.02993 6.54041 8.78951 6.53025 8.57227 6.52141C8.39438 6.51381 8.19101 6.51438 7.98784 6.51438C7.78448 6.51438 7.45407 6.59029 7.17478 6.89287C6.89521 7.19574 6.10742 7.92764 6.10742 9.41623C6.10742 10.9048 7.20015 12.3435 7.35248 12.5456C7.50501 12.7473 9.46202 15.8999 12.5615 17.1127C15.1374 18.1205 15.6616 17.9201 16.2206 17.8695C16.7798 17.8192 18.0248 17.1378 18.2789 16.4313C18.5331 15.7249 18.5331 15.1193 18.4568 14.9928C18.3806 14.8667 18.1773 14.791 17.8723 14.6397C17.5674 14.4885 16.0681 13.7564 15.7886 13.6554C15.5091 13.5545 15.3058 13.5042 15.1024 13.8071C14.8991 14.1096 14.3151 14.791 14.1371 14.9928C13.9593 15.195 13.7813 15.2202 13.4765 15.0689C13.1714 14.9171 12.1893 14.5979 11.0242 13.5673C10.1177 12.7653 9.50568 11.7749 9.32779 11.4719C9.1499 11.1694 9.30874 11.0054 9.46164 10.8547C9.59865 10.7191 9.76668 10.5013 9.9193 10.3247C10.0713 10.148 10.1221 10.022 10.2238 9.82018C10.3255 9.61821 10.2746 9.4415 10.1985 9.29016C10.1221 9.13882 9.52952 7.64244 9.25838 7.04421Z" fill="white"/>
</g>
<defs>
<linearGradient id="paint0_linear_3094_738" x1="1183.51" y1="2358.81" x2="1183.51" y2="0.422989" gradientUnits="userSpaceOnUse">
<stop stop-color="#1FAF38"/>
<stop offset="1" stop-color="#60D669"/>
</linearGradient>
<linearGradient id="paint1_linear_3094_738" x1="1225.53" y1="2442.96" x2="1225.53" y2="3.05176e-05" gradientUnits="userSpaceOnUse">
<stop stop-color="#F9F9F9"/>
<stop offset="1" stop-color="white"/>
</linearGradient>
<clipPath id="clip0_3094_738">
<rect width="24.4156" height="24.6064" fill="white"/>
</clipPath>
</defs>
</svg>
