<svg width="47" height="47" viewBox="0 0 47 47" fill="none" xmlns="http://www.w3.org/2000/svg">
<rect width="46.0205" height="46.0205" rx="1.64359" fill="#2D4ED8"/>
<path d="M26.8229 18.7969C25.3548 18.2833 24.3689 16.9336 24.3689 15.4384L24.0036 9.49187L25.4703 10.3065C25.8926 10.7745 26.2493 11.1768 26.7173 10.7545C27.1853 10.3322 27.2223 9.61031 26.8 9.14232L24.0778 6.12908C23.861 5.88939 23.5542 5.75244 23.2318 5.75244C22.9094 5.75244 22.6012 5.88941 22.3858 6.12765L19.6578 9.1409C19.2355 9.60742 19.2712 10.3294 19.7377 10.7531C19.956 10.9514 19.9049 10.8658 20.1789 10.8658C20.4899 10.8658 20.7593 10.5562 20.9847 10.308L22.089 9.49189V15.4384C22.089 17.9038 23.6898 20.1193 26.0723 20.9513C29.5278 22.1584 31.8475 25.4299 31.8475 29.0922C31.8475 31.5405 30.435 33.8816 28.6117 35.5154C26.7612 37.1718 24.3687 37.9351 21.8774 37.6569C17.9225 37.2203 14.7351 34.033 14.2986 30.0781C13.7978 25.5396 16.7811 21.4763 21.2382 20.626C21.8574 20.5076 22.6292 19.9098 22.5108 19.2906C22.3924 18.6714 21.7946 18.2705 21.1754 18.3832C15.5368 19.4604 11.7621 24.5953 12.3954 30.3292C12.949 35.337 16.985 39.3733 21.9928 39.9266C22.3966 39.9709 22.8018 39.9923 23.2041 39.9923C25.8892 39.9923 28.4958 39.0107 30.5006 37.2158C32.8076 35.1485 34.1316 32.1879 34.1316 29.0921C34.1316 24.4609 31.1954 20.3234 26.8253 18.7967L26.8229 18.7969Z" fill="white"/>
<path d="M26.8297 26.9308L26.4452 28.3536H19.2157L19.6079 26.9308H26.8297ZM23.2304 35.337L19.4387 30.8609L19.431 29.6303H21.2615C21.7076 29.6303 22.0742 29.5483 22.3613 29.3842C22.6535 29.215 22.8715 28.9869 23.015 28.6997C23.1637 28.4126 23.2381 28.0896 23.2381 27.7307C23.2381 27.3564 23.1714 27.0257 23.0381 26.7385C22.9048 26.4463 22.692 26.2181 22.3997 26.0541C22.1075 25.89 21.7204 25.8079 21.2384 25.8079H19.2234L19.6618 24.139H21.2384C22.1511 24.139 22.9099 24.2774 23.5149 24.5543C24.1251 24.8261 24.5814 25.2234 24.8839 25.7464C25.1916 26.2643 25.3454 26.8898 25.3454 27.623C25.3454 28.2639 25.2377 28.8305 25.0224 29.3227C24.8121 29.8098 24.4712 30.2072 23.9995 30.5148C23.5278 30.8224 22.9074 31.0275 22.1383 31.1301L25.5761 35.2293V35.337H23.2304ZM26.8374 24.139L26.4452 25.5618H20.5001L20.8923 24.139H26.8374Z" fill="white"/>
</svg>
