<svg width="47" height="47" viewBox="0 0 47 47" fill="none" xmlns="http://www.w3.org/2000/svg">
<rect width="46.0205" height="46.0205" rx="1.64359" fill="#2D4ED8"/>
<path d="M8.25056 24.6882H15.0548C15.5282 24.6882 15.9112 25.0682 15.9112 25.5378V25.7357C15.9884 25.7068 16.0671 25.6808 16.1457 25.6563C16.705 25.4785 17.2962 25.3817 17.9021 25.3817C18.958 25.3817 19.9483 25.6649 20.8003 26.1591C21.53 26.5824 22.1577 27.1618 22.6383 27.8553H27.6556C28.5061 27.8553 29.2824 28.2007 29.8416 28.7569C30.3601 29.2713 30.698 29.9692 30.7446 30.7393L34.7918 28.4218C35.5302 27.9984 36.3749 27.9132 37.138 28.1169C37.8997 28.3206 38.5871 28.8119 39.0153 29.5444L39.0168 29.543C39.4435 30.277 39.5294 31.1135 39.3241 31.8707C39.1187 32.6278 38.6236 33.3083 37.8852 33.7331L37.8866 33.7346L28.2861 39.2337C28.1506 39.3117 28.0035 39.3478 27.8579 39.3478V39.3507H15.9125V40.1945C15.9125 40.664 15.5295 41.0441 15.0562 41.0441H8.25188C7.77856 41.0441 7.39551 40.6641 7.39551 40.1945V25.5407C7.39551 25.0726 7.77852 24.6911 8.25188 24.6911L8.25056 24.6882ZM15.9113 27.5982V37.6487H27.631L37.0292 32.265L37.0306 32.2664L37.0335 32.265C37.3598 32.0786 37.5811 31.7723 37.6729 31.4299C37.7646 31.0889 37.7282 30.7147 37.5389 30.3896L37.5403 30.3881L37.5389 30.3852C37.3495 30.063 37.0423 29.8419 36.6971 29.751C36.3534 29.6599 35.9762 29.696 35.6485 29.8839L29.3058 33.5163C28.8266 33.8168 28.2615 33.9917 27.6571 33.9917H23.0708C22.5975 33.9917 22.2145 33.6117 22.2145 33.1421C22.2145 32.6725 22.5975 32.2925 23.0708 32.2925H27.6571C28.0358 32.2925 28.3824 32.1379 28.6329 31.8894C28.8834 31.6409 29.0392 31.2984 29.0392 30.9213C29.0392 30.5456 28.8834 30.2018 28.6329 29.9532C28.3824 29.7047 28.0372 29.5501 27.6571 29.5501H22.1723V29.5458C21.8752 29.5458 21.5868 29.3898 21.4295 29.1152C21.08 28.4997 20.5644 27.9824 19.9396 27.6212C19.3439 27.2759 18.6478 27.0779 17.9051 27.0779C17.4681 27.0779 17.0545 27.1429 16.67 27.2658C16.405 27.3496 16.1516 27.4608 15.9142 27.5937L15.9113 27.5982ZM14.1985 26.3874H9.10704V39.3419H14.1985V26.3874ZM31.4042 22.8315C31.0736 22.4992 31.078 21.9617 31.4144 21.6337C31.7508 21.3058 32.2912 21.3101 32.6218 21.6439L34.4365 23.4702V17.0493C34.4365 14.1336 33.2451 11.4951 31.3198 9.58503C29.3944 7.6749 26.735 6.493 23.7959 6.493C23.3226 6.493 22.9395 6.11302 22.9395 5.64341C22.9395 5.17381 23.3225 4.79382 23.7959 4.79382C27.2068 4.79382 30.2945 6.16499 32.53 8.38286C34.7641 10.5993 36.1491 13.6637 36.1491 17.0478V23.4687L37.9638 21.6423C38.2944 21.3086 38.8347 21.3042 39.1712 21.6322C39.5061 21.9602 39.512 22.4962 39.1814 22.83L35.8914 26.1402C35.5549 26.4682 35.0146 26.4639 34.684 26.1301L31.4027 22.83L31.4042 22.8315ZM23.7991 10.2584C21.9087 10.2584 20.1989 11.0184 18.9608 12.2465C17.7228 13.4747 16.9568 15.1724 16.9568 17.0465C16.9568 18.9207 17.7228 20.6182 18.9608 21.8465C20.1987 23.0747 21.91 23.8347 23.7991 23.8347C25.688 23.8347 27.3993 23.0747 28.6374 21.8465C29.8753 20.6184 30.6414 18.9207 30.6414 17.0465C30.6414 15.1711 29.8753 13.4748 28.6374 12.2465C27.3995 11.0184 25.6882 10.2584 23.7991 10.2584ZM17.749 11.0458C19.2972 9.50996 21.4366 8.55921 23.7991 8.55921C26.1613 8.55921 28.2992 9.50848 29.8491 11.0458C31.3973 12.5817 32.3541 14.7028 32.3541 17.048C32.3541 19.3915 31.3973 21.5125 29.8491 23.0501C28.301 24.586 26.1615 25.5367 23.7991 25.5367C21.4368 25.5367 19.2974 24.5875 17.749 23.0501C16.2009 21.5142 15.2426 19.3932 15.2426 17.048C15.2426 14.7044 16.1994 12.5835 17.749 11.0458Z" fill="white"/>
<path d="M27.1613 15.3132L26.8631 16.3375H20.8466L21.1448 15.3132H27.1613ZM24.4643 22.4447L21.0346 18.4381L21.0281 17.6342H22.6101C23.0682 17.6342 23.4464 17.5585 23.7446 17.4072C24.0472 17.2517 24.2741 17.042 24.4254 16.7784C24.5766 16.5147 24.6523 16.2187 24.6523 15.8902C24.6523 15.5228 24.581 15.2008 24.4383 14.9242C24.2957 14.6432 24.0709 14.425 23.7641 14.2694C23.4615 14.1094 23.0639 14.0295 22.5712 14.0295H20.8596L21.1643 13.0051H22.5712C23.3232 13.0051 23.9434 13.1197 24.4318 13.3487C24.9246 13.5735 25.292 13.902 25.534 14.3342C25.776 14.7664 25.8971 15.2894 25.8971 15.9031C25.8971 16.4304 25.7955 16.9037 25.5924 17.323C25.3935 17.7379 25.0629 18.0642 24.6004 18.3019C24.1423 18.5397 23.5242 18.6585 22.7462 18.6585L25.936 22.3669V22.4447H24.4643ZM27.1613 13.0051L26.8631 14.0295H22.0136L22.3118 13.0051H27.1613Z" fill="white"/>
</svg>
