<svg width="47" height="47" viewBox="0 0 47 47" fill="none" xmlns="http://www.w3.org/2000/svg">
<rect width="46.0205" height="46.0205" rx="1.64359" fill="#2D4ED8"/>
<path fill-rule="evenodd" clip-rule="evenodd" d="M34.2238 9.17676C35.8909 9.17676 37.2445 10.5303 37.2445 12.1987V34.3593C37.2445 36.0276 35.8909 37.3812 34.2238 37.3812H12.0619C10.3936 37.3812 9.04004 36.0276 9.04004 34.3593V12.1987C9.04004 10.5303 10.3936 9.17676 12.0619 9.17676H34.2238ZM34.2226 11.1914H12.0633C11.5067 11.1914 11.0547 11.6421 11.0547 12.1987V34.358C11.0547 34.9158 11.5067 35.3666 12.0633 35.3666H34.2226C34.7791 35.3666 35.2299 34.9158 35.2299 34.358V12.1987C35.2299 11.6421 34.7791 11.1914 34.2226 11.1914ZM21.7182 23.483L16.2852 18.05C15.8924 17.6559 15.8924 17.0188 16.2852 16.626C16.6793 16.2318 17.3164 16.2318 17.7093 16.626L23.1423 22.0589L28.5752 16.626C28.9694 16.2318 29.6065 16.2318 29.9993 16.626C30.3934 17.0188 30.3934 17.6559 29.9993 18.05L24.5664 23.483L29.9993 28.916C30.3934 29.3089 30.3934 29.946 29.9993 30.3401C29.6065 30.7329 28.9694 30.7329 28.5752 30.3401L23.1423 24.9071L17.7093 30.3401C17.3164 30.7329 16.6793 30.7329 16.2852 30.3401C15.8924 29.946 15.8924 29.3089 16.2852 28.916L21.7182 23.483Z" fill="white"/>
</svg>
