<svg width="47" height="47" viewBox="0 0 47 47" fill="none" xmlns="http://www.w3.org/2000/svg">
<rect width="46.0205" height="46.0205" rx="1.64359" fill="#2D4ED8"/>
<path d="M23.3267 8.62891C23.2373 8.63018 23.1478 8.64292 23.0622 8.66967L11.3262 12.2674H11.3274C10.9455 12.3834 10.6849 12.7337 10.6836 13.1312V25.023C10.6836 28.8079 13.9041 31.8529 16.9279 34.0316C19.9516 36.2101 22.9625 37.5429 22.9625 37.5429L22.9613 37.5416C23.1963 37.6461 23.4646 37.6461 23.6996 37.5416C23.6996 37.5416 26.7055 36.209 29.7294 34.0303C32.7531 31.8517 35.9737 28.8067 35.9737 25.0217L35.9724 13.1312C35.9724 12.735 35.7143 12.3859 35.3362 12.2675L23.5939 8.66971C23.5071 8.64295 23.4174 8.62891 23.3267 8.62891ZM23.3305 10.4813L34.1545 13.7989V25.0218C34.1545 27.7163 31.5153 30.5154 28.6702 32.5653C26.0093 34.4827 23.6651 35.5223 23.3318 35.6739C22.9959 35.5235 20.6555 34.484 17.9934 32.5666C15.1485 30.5166 12.5003 27.7164 12.5003 25.023V13.8002L23.3305 10.4813ZM27.9432 17.8057C27.7031 17.8095 27.4744 17.9076 27.3071 18.0783L21.8614 23.5834L19.3537 21.0494C19.1851 20.8774 18.9539 20.7806 18.7112 20.7793C18.4698 20.778 18.2373 20.8723 18.0661 21.043C17.8949 21.2112 17.7965 21.4418 17.7952 21.6826C17.794 21.9234 17.8885 22.1552 18.0584 22.326L21.2112 25.5161H21.2124C21.3823 25.6894 21.6161 25.7862 21.8588 25.7862C22.1016 25.7862 22.334 25.6894 22.5052 25.5161L28.6014 19.3512H28.6027C28.7713 19.1792 28.8658 18.9473 28.8633 18.7053C28.8607 18.4645 28.7611 18.2352 28.5886 18.067C28.4162 17.8976 28.1847 17.8044 27.9432 17.8057Z" fill="white"/>
</svg>
