<svg width="47" height="47" viewBox="0 0 47 47" fill="none" xmlns="http://www.w3.org/2000/svg">
<rect width="46.0205" height="46.0205" rx="1.64359" fill="#2D4ED8"/>
<path d="M21.6793 37.8025C21.0053 37.8025 20.364 37.5132 19.9291 36.999C19.4943 36.4848 19.3095 35.8099 19.44 35.1564L21.1249 26.0293H16.1462C15.494 26.0293 14.8744 25.74 14.4613 25.2472C14.0483 24.7544 13.8852 24.101 14.0157 23.4689L16.8311 9.53175C17.0376 8.53547 17.929 7.80701 18.9617 7.80701H24.3534C25.0056 7.80701 25.6252 8.09625 26.0383 8.58903C26.4514 9.08181 26.6144 9.73529 26.484 10.3673L24.8317 18.5197H29.3538C30.1147 18.5197 30.7995 18.8946 31.2017 19.5374C31.6039 20.1801 31.6366 20.9514 31.2996 21.6263L23.7229 36.5598C23.3316 37.3311 22.5489 37.8025 21.6793 37.8025ZM18.9617 9.94954L16.1354 23.876H21.114C21.7554 23.876 22.3641 24.1545 22.7881 24.6473C23.2011 25.1401 23.3751 25.7722 23.2555 26.4042L21.5706 35.5314L21.6793 35.6599C21.6793 35.6599 21.7554 35.6385 21.7771 35.5957L29.3538 20.6622H24.8317C24.1795 20.6622 23.5599 20.373 23.1468 19.8802C22.7337 19.3874 22.5706 18.7339 22.7011 18.1019L24.3534 9.94954H18.9617Z" fill="white"/>
</svg>
