<svg width="53" height="52" viewBox="0 0 53 52" fill="none" xmlns="http://www.w3.org/2000/svg">
<path d="M40.1094 9.57434C41.2552 9.57439 42.1806 10.5172 42.1807 11.6749V25.5089C46.5557 25.9913 49.9578 29.7498 49.958 34.3126C49.958 39.2033 46.0529 43.1709 41.2295 43.171C36.6292 43.171 32.8652 39.5634 32.5264 34.9865H7.68457C6.53888 34.9865 5.61248 34.0445 5.6123 32.8859V11.6749C5.61234 10.5171 6.53875 9.57434 7.68457 9.57434H40.1094ZM41.3242 27.3878C37.5047 27.3878 34.4043 30.5314 34.4043 34.4122C34.4044 38.293 37.5048 41.4366 41.3242 41.4366C45.1454 41.4365 48.245 38.2929 48.2451 34.4122C48.2451 30.5315 45.1455 27.388 41.3242 27.3878ZM41.3721 29.7589C41.9826 29.7591 42.4668 30.2713 42.4668 30.8888V33.1554H44.7119C45.3302 33.1554 45.8301 33.652 45.8301 34.2667C45.8299 34.8803 45.3302 35.3771 44.7119 35.3771H42.4668V37.6573C42.4666 38.2776 41.9824 38.787 41.3721 38.7872C40.7632 38.7872 40.2785 38.2775 40.2783 37.6564L40.2764 35.3761H38.0332C37.415 35.376 36.9152 34.8792 36.915 34.2657C36.915 33.6511 37.415 33.1545 38.0332 33.1544H40.2764L40.2783 30.8878C40.2786 30.2706 40.7632 29.7589 41.3721 29.7589ZM7.3252 32.0948C7.3252 32.547 7.41374 32.8256 7.58008 32.9943C7.74591 33.1624 8.01894 33.252 8.46387 33.2521H32.5645C33.0503 29.1141 36.3487 25.8514 40.4688 25.4923V19.2013H7.3252V32.0948ZM8.46387 11.3097C8.01894 11.3097 7.74591 11.3993 7.58008 11.5675C7.41388 11.7362 7.32524 12.0141 7.3252 12.4659V16.4122H40.4688V12.4659C40.4687 12.0144 40.3799 11.7362 40.2139 11.5675C40.0481 11.3993 39.7746 11.3097 39.3311 11.3097H8.46387Z" fill="#2D4ED8" stroke="#2D4ED8" stroke-width="0.273519"/>
</svg>
