<svg width="106" height="106" viewBox="0 0 106 106" fill="none" xmlns="http://www.w3.org/2000/svg">
<rect width="106" height="106" rx="2" fill="#2D4ED8"/>
<path d="M53 87.3517C64.4103 87.3776 75.0892 81.7332 81.4996 72.2879C87.9058 62.8474 89.2044 50.836 84.9668 40.2435C80.7291 29.6471 71.5054 21.8466 60.3545 19.4275C49.2002 17.0122 37.5772 20.2889 29.3272 28.1756V24.1932C29.3272 23.5786 28.8338 23.0851 28.2191 23.0851C27.6088 23.0851 27.111 23.5786 27.111 24.1932V30.8376C27.1153 31.3094 27.4183 31.7249 27.8642 31.8721C27.9854 31.8981 28.1023 31.9197 28.2191 31.9457H34.8678C35.4781 31.9457 35.9759 31.4479 35.9759 30.8376C35.9759 30.2273 35.4781 29.7295 34.8678 29.7295H30.9029C38.5557 22.5224 49.2643 19.5443 59.541 21.7649C69.8127 23.9854 78.3357 31.1189 82.3305 40.8411C86.3258 50.563 85.2783 61.6315 79.5342 70.4311C73.7902 79.2354 64.0816 84.646 53.5711 84.902C43.0613 85.1573 33.1009 80.2227 26.9376 71.7132C20.7694 63.1989 19.1851 52.1959 22.7043 42.2916C22.8904 41.7202 22.5874 41.1099 22.0203 40.9065C21.4576 40.703 20.8343 40.9887 20.6179 41.5471C19.3107 45.222 18.6441 49.0961 18.6485 53.0006C18.6571 62.1079 22.2801 70.839 28.721 77.2794C35.1619 83.7197 43.8924 87.343 53 87.3517Z" fill="#F9FAFB"/>
<path d="M53.0003 76.3226C59.1858 76.3226 65.1165 73.8639 69.4924 69.492C73.8643 65.1159 76.3229 59.1857 76.3229 53C76.3229 46.8143 73.8643 40.8838 69.4924 36.5079C65.1162 32.1361 59.1861 29.6774 53.0003 29.6774C46.8146 29.6774 40.8842 32.1361 36.5083 36.5079C32.1364 40.8841 29.6777 46.8143 29.6777 53C29.6777 59.1857 32.1364 65.1161 36.5083 69.492C40.8844 73.8639 46.8146 76.3226 53.0003 76.3226ZM52.4679 54.567C49.9227 53.7099 46.4382 52.5369 46.4382 48.1001C46.4469 45.1264 48.4596 42.5293 51.3382 41.7761V40.7502C51.3382 39.8326 52.0827 39.0881 53.0004 39.0881C53.918 39.0881 54.6625 39.8326 54.6625 40.7502V41.7761C57.5411 42.5293 59.5539 45.1264 59.5625 48.1001C59.5625 49.0178 58.818 49.7623 57.9003 49.7623C56.9827 49.7623 56.2382 49.0178 56.2382 48.1001C56.2382 46.3124 54.7881 44.8623 53.0004 44.8623C51.2127 44.8623 49.7626 46.3124 49.7626 48.1001C49.7626 49.9744 50.7928 50.4982 53.5284 51.4201C56.0736 52.2772 59.5624 53.4502 59.5624 57.9001C59.5537 60.8738 57.541 63.4709 54.6624 64.2241V65.2499C54.6624 66.1676 53.9179 66.9121 53.0003 66.9121C52.0826 66.9121 51.3381 66.1676 51.3381 65.2499V64.2241C48.4595 63.4709 46.4468 60.8738 46.4381 57.9001C46.4381 56.9824 47.1826 56.2379 48.1003 56.2379C49.0179 56.2379 49.7625 56.9824 49.7625 57.9001C49.7625 59.6878 51.2125 61.1379 53.0003 61.1379C54.788 61.1379 56.2381 59.6878 56.2381 57.9001C56.2381 56.0171 55.2035 55.4889 52.4679 54.567Z" fill="#F9FAFB"/>
<circle cx="53.5" cy="54.5" r="18.5" fill="white"/>
<path d="M52.35 66L46.95 56.58V54.36H48.75C49.47 54.36 50.1 54.26 50.64 54.06C51.2 53.84 51.66 53.53 52.02 53.13C52.4 52.73 52.66 52.25 52.8 51.69H46.95V49.47H52.77C52.65 48.95 52.44 48.49 52.14 48.09C51.86 47.69 51.48 47.38 51 47.16C50.54 46.92 49.98 46.8 49.32 46.8H46.95V44.58H60.48V46.8H55.77C56.11 47.18 56.39 47.59 56.61 48.03C56.85 48.47 57.01 48.95 57.09 49.47H60.48V51.69H57.15C56.95 53.17 56.38 54.33 55.44 55.17C54.5 55.99 53.29 56.55 51.81 56.85L57.69 66H52.35Z" fill="#2D4ED8"/>
</svg>
