<svg width="53" height="52" viewBox="0 0 53 52" fill="none" xmlns="http://www.w3.org/2000/svg">
<path d="M35.1947 4.32733C34.5831 4.32733 34.0872 3.82977 34.0872 3.21616C34.0872 2.60254 34.5831 2.10498 35.1947 2.10498C37.3488 2.10498 39.3063 2.98841 40.7245 4.41147C42.1428 5.83453 43.0232 7.79867 43.0232 9.96155V35.3445V41.6344C43.0232 43.7958 42.1428 45.76 40.7245 47.1845C39.3063 48.6076 37.3488 49.491 35.1947 49.491H17.687C15.5329 49.491 13.5753 48.6076 12.1571 47.1845C10.7388 45.7614 9.8584 43.7973 9.8584 41.6344V35.3445V9.96155C9.8584 7.80012 10.7388 5.83598 12.1571 4.41147C13.5753 2.98841 15.5329 2.10498 17.687 2.10498C18.2985 2.10498 18.7944 2.60254 18.7944 3.21616C18.7944 3.82977 18.2985 4.32733 17.687 4.32733C16.1444 4.32733 14.7406 4.96125 13.7214 5.98249C12.7036 7.00373 12.0704 8.41228 12.0704 9.96155V34.2348H40.8098V9.96155C40.8098 8.41228 40.1781 7.00373 39.1588 5.98249C38.141 4.96125 36.7372 4.32733 35.1932 4.32733H35.1947ZM17.8822 13.8129C17.4499 13.3792 17.4499 12.6771 17.8822 12.2434C18.3144 11.8096 19.0142 11.8096 19.4479 12.2434L25.3348 18.1503V3.21761C25.3348 2.60399 25.8307 2.10643 26.4423 2.10643C27.0538 2.10643 27.5497 2.60399 27.5497 3.21761V18.1503L33.4367 12.2434C33.8689 11.8096 34.5701 11.8096 35.0024 12.2434C35.4347 12.6771 35.4347 13.3792 35.0024 13.8129L27.2258 21.6158C26.7936 22.0496 26.0924 22.0496 25.6601 21.6158L17.8836 13.8129H17.8822ZM24.3532 42.837C23.7417 42.837 23.2458 42.3394 23.2458 41.7273C23.2458 41.1136 23.7417 40.6161 24.3532 40.6161H28.5284C29.14 40.6161 29.6359 41.1136 29.6359 41.7273C29.6359 42.3409 29.14 42.837 28.5284 42.837H24.3532ZM12.0718 36.4557V41.6344C12.0718 43.1837 12.7036 44.5922 13.7228 45.6135C14.7406 46.6347 16.1444 47.2686 17.6884 47.2686H35.1961C36.7387 47.2686 38.1425 46.6347 39.1617 45.6135C40.1795 44.5922 40.8127 43.1837 40.8127 41.6344V36.4557H12.0732H12.0718Z" fill="#2D4ED8"/>
</svg>
