<svg width="106" height="106" viewBox="0 0 106 106" fill="none" xmlns="http://www.w3.org/2000/svg">
<rect width="106" height="106" rx="2" fill="#2D4ED8"/>
<path fill-rule="evenodd" clip-rule="evenodd" d="M66.7629 18L66.8584 23.7565H73.7863L66.7629 18ZM36.7352 30.2912C37.046 29.9803 37.0489 29.4766 36.738 29.1658C36.4272 28.8549 35.9234 28.852 35.6126 29.1629L33.0422 31.7276L32.0376 30.723C31.7238 30.4121 31.2201 30.415 30.9121 30.7259C30.6013 31.0368 30.6041 31.5434 30.915 31.8513L32.4809 33.4143C32.7918 33.7223 33.2926 33.7223 33.6034 33.4143L36.7352 30.2883L36.7352 30.2912ZM45.1086 39.735C44.6682 39.735 44.3085 40.0919 44.3085 40.5352C44.3085 40.9756 44.6654 41.3354 45.1086 41.3354H57.958C58.3984 41.3354 58.7582 40.9784 58.7582 40.5352C58.7582 40.0919 58.4012 39.735 57.958 39.735H45.1086ZM36.7352 39.5335C37.046 39.2227 37.0489 38.7189 36.738 38.4081C36.4272 38.0972 35.9234 38.0943 35.6126 38.4052L33.0422 40.9728L32.0376 39.9711C31.7238 39.6602 31.2201 39.6631 30.9121 39.974C30.6013 40.2848 30.6041 40.7886 30.915 41.0994L32.4809 42.6624C32.7918 42.9704 33.2926 42.9704 33.6034 42.6624L36.7352 39.5364L36.7352 39.5335ZM40.1086 48.9803C39.6682 48.9803 39.3085 49.3372 39.3085 49.7776C39.3085 50.218 39.6654 50.5778 40.1086 50.5778H49.1206C49.561 50.5778 49.9179 50.2208 49.9179 49.7776C49.9179 49.3343 49.561 48.9803 49.1206 48.9803H40.1086ZM36.7352 48.7788C37.046 48.4679 37.0489 47.9642 36.738 47.6534C36.4272 47.3425 35.9234 47.3396 35.6126 47.6505L33.0422 50.2181L32.0376 49.2163C31.7238 48.9055 31.2201 48.9083 30.9121 49.2192C30.6013 49.5301 30.6041 50.0338 30.915 50.3447L32.4809 51.9076C32.7918 52.2156 33.2926 52.2156 33.6034 51.9076L36.7352 48.7817L36.7352 48.7788ZM40.1086 58.2255C39.6682 58.2255 39.3085 58.5825 39.3085 59.0257C39.3085 59.4661 39.6654 59.8259 40.1086 59.8259H47.9004C48.3408 59.8259 48.7006 59.469 48.7006 59.0257C48.7006 58.5853 48.3436 58.2255 47.9004 58.2255H40.1086ZM36.7352 58.0241C37.046 57.7132 37.0489 57.2094 36.738 56.8986C36.4272 56.5878 35.9234 56.5849 35.6126 56.8957L33.0422 59.4604L32.0376 58.4587C31.7238 58.1479 31.2201 58.1507 30.9121 58.4616C30.6013 58.7725 30.6041 59.2762 30.915 59.587L32.4809 61.15C32.7918 61.458 33.2926 61.4609 33.6034 61.15L36.7352 58.0241ZM45.1086 30.4859C44.6682 30.4859 44.3085 30.8429 44.3085 31.2861C44.3085 31.7265 44.6654 32.0834 45.1086 32.0834H66.7629C67.2033 32.0834 67.5631 31.7265 67.5631 31.2861C67.5631 30.8457 67.2062 30.4859 66.7629 30.4859H45.1086ZM72.854 81.5581L25.3947 81.561C24.8795 81.561 24.4621 81.1436 24.4621 80.6312V18.9326C24.4621 18.4174 24.8795 18 25.3947 18H63.853V26.1086C63.853 26.6958 64.3308 27.1736 64.918 27.1736H73.7863V40.9613C64.1951 38.1663 54.1928 43.9203 51.8009 53.6267C49.4809 63.0447 55.2349 72.5755 64.6557 74.8952C67.6982 75.6464 70.8414 75.5659 73.7863 74.7052V80.6319C73.7863 81.1471 73.369 81.5616 72.8537 81.5616L72.854 81.5581ZM55.8824 83.1556V87.0674C55.8824 87.5826 55.4651 88 54.9527 88H18.9326C18.4174 88 18 87.5826 18 87.0674V23.7565C18 23.2412 18.4174 22.8239 18.9326 22.8239H22.8674V80.6311C22.8674 82.0271 23.9986 83.1584 25.3975 83.1584H55.8881L55.8824 83.1556ZM61.4728 50.134C57.2271 54.2127 57.0889 60.9683 61.1705 65.2142C65.2493 69.4598 72.0019 69.598 76.2507 65.5164C80.4964 61.4376 80.6345 54.6851 76.5529 50.4333C72.4742 46.1876 65.7216 46.0495 61.4728 50.131V50.134ZM68.0615 56.9012V53.3204C66.179 53.9508 66.179 56.2708 68.0615 56.9012ZM69.659 58.7549V62.3356C71.5415 61.7053 71.5415 59.3824 69.659 58.7549ZM70.914 54.3797C71.104 54.774 71.5789 54.9438 71.9761 54.7538C72.3705 54.5639 72.5403 54.0889 72.3503 53.6946C71.8437 52.6353 70.8219 51.9042 69.6619 51.6739V50.5859C69.6619 50.1455 69.305 49.7857 68.8617 49.7857C68.4213 49.7857 68.0644 50.1426 68.0644 50.5859V51.6739C65.1169 52.2525 64.0116 55.6548 66.1992 57.6265C66.703 58.0813 67.3477 58.4094 68.0644 58.5505V62.3384C67.5521 62.1686 67.1088 61.8261 66.8584 61.3655C66.6454 60.9798 66.1618 60.8388 65.776 61.0518C65.3903 61.2648 65.2493 61.7484 65.4594 62.1341C65.9919 63.1041 66.9677 63.7691 68.0644 63.9849V65.073C68.0644 65.5134 68.4214 65.8703 68.8617 65.8703C69.3021 65.8703 69.6619 65.5134 69.6619 65.073V63.9849C72.6094 63.4035 73.7147 60.0012 71.5271 58.0324C71.0205 57.5776 70.3786 57.2494 69.6619 57.1084V53.3204C70.203 53.5018 70.6751 53.8788 70.9169 54.3797L70.914 54.3797ZM84.3303 61.6419C82.2233 70.1853 73.5911 75.4038 65.0477 73.2993C56.5044 71.1923 51.2888 62.5601 53.3933 54.0167C55.5003 45.4734 64.1325 40.2548 72.6759 42.3594C81.2192 44.4664 86.4348 53.0986 84.3303 61.6419ZM86.3193 87.4238C84.7131 88.3506 82.6406 87.7951 81.7109 86.1889L77.7473 79.3267C77.6005 79.0734 77.6898 78.7453 77.9431 78.5985L82.8623 75.7575C83.1156 75.6107 83.4437 75.6999 83.5905 75.9532L87.5541 82.8182C88.481 84.4244 87.9254 86.4969 86.3193 87.4266V87.4238ZM79.6701 71.6296C78.5418 72.5103 77.3127 73.253 76.0059 73.8373L77.7588 76.8712L81.4633 74.7325L79.6701 71.6296Z" fill="#F9FAFB"/>
<circle cx="69.5" cy="57.5" r="12" fill="white"/>
<path d="M68.93 62.5L66.41 58.104V57.068H67.25C67.586 57.068 67.88 57.0213 68.132 56.928C68.3933 56.8253 68.608 56.6807 68.776 56.494C68.9533 56.3073 69.0747 56.0833 69.14 55.822H66.41V54.786H69.126C69.07 54.5433 68.972 54.3287 68.832 54.142C68.7013 53.9553 68.524 53.8107 68.3 53.708C68.0853 53.596 67.824 53.54 67.516 53.54H66.41V52.504H72.724V53.54H70.526C70.6847 53.7173 70.8153 53.9087 70.918 54.114C71.03 54.3193 71.1047 54.5433 71.142 54.786H72.724V55.822H71.17C71.0767 56.5127 70.8107 57.054 70.372 57.446C69.9333 57.8287 69.3687 58.09 68.678 58.23L71.422 62.5H68.93Z" fill="#2D4ED8"/>
</svg>
