<svg width="53" height="52" viewBox="0 0 53 52" fill="none" xmlns="http://www.w3.org/2000/svg">
<path d="M47.1982 2.87512C47.4112 2.83709 47.6262 2.87388 47.8164 2.98254L49.1025 3.71399C49.5491 3.96835 49.7114 4.53419 49.4561 4.98254L48.9932 5.79309C49.528 6.56691 49.6112 7.59283 49.1221 8.45618L48.1729 10.129C48.4936 10.428 48.7293 10.8091 48.8467 11.2394C48.9369 11.5692 48.8277 11.9462 48.6699 12.295C48.5113 12.6457 48.2917 12.9918 48.1416 13.256H48.1406L43.623 21.0636C43.584 21.132 43.5634 21.166 43.5527 21.1837C43.548 21.1916 43.5425 21.2005 43.5361 21.2081C43.5278 21.2181 43.5191 21.2257 43.5176 21.2267C43.5147 21.23 43.5095 21.2368 43.501 21.2482C43.4808 21.2751 43.4452 21.3249 43.3828 21.4181L43.3584 21.4542H43.3145C43.1582 21.4542 42.9973 21.4112 42.8555 21.3312C42.4762 21.1205 42.3068 20.6789 42.417 20.2775L38.9932 26.3126V46.1974C38.993 47.3365 38.0659 48.2628 36.9268 48.2628H11.0195C9.8805 48.2626 8.95425 47.3364 8.9541 46.1974V10.6886H9.05273C9.058 10.6771 9.06546 10.6614 9.07422 10.6398L9.07324 10.6388C9.04671 10.6266 9.02133 10.6317 9.00586 10.6388C8.99261 10.6449 8.98417 10.6525 8.98145 10.6554C8.97808 10.659 8.9763 10.6622 8.97559 10.6632V10.6622C8.97851 10.6564 8.98375 10.646 8.99121 10.6281C9.0217 10.5546 9.08391 10.3906 9.20898 10.0587C9.44714 9.427 9.92458 8.64392 10.7969 8.11731C10.8984 8.056 11 7.98706 11.1055 7.91711C11.2103 7.8476 11.3188 7.77693 11.4297 7.71399C11.6509 7.58842 11.8908 7.4894 12.1533 7.48938H36.9209H36.9219C38.0608 7.48962 38.9871 8.41585 38.9873 9.55481V13.7609L42.3535 7.82532L43.7246 5.4054C44.2135 4.54268 45.1426 4.0818 46.0791 4.14758L46.542 3.33704V3.33606C46.6664 3.11854 46.8716 2.96361 47.1064 2.89563L47.1982 2.87512ZM13.7549 9.34778C12.9762 9.34786 12.2293 9.65756 11.6787 10.2081C11.128 10.7588 10.8184 11.5065 10.8184 12.2853V46.1974C10.8185 46.3105 10.9065 46.3984 11.0195 46.3986H36.9268C37.04 46.3986 37.1278 46.3106 37.1279 46.1974V29.6027L35.1738 33.0431C35.129 33.1259 35.0664 33.2006 34.999 33.2618L34.9922 33.2667C34.9913 33.2677 34.9912 33.2696 34.9902 33.2706L34.9873 33.2736L30.7031 37.1261H32.6816C33.1974 37.1261 33.6143 37.5429 33.6143 38.0587C33.614 38.5743 33.1973 38.9904 32.6816 38.9904H15.2539C14.7383 38.9904 14.3215 38.5743 14.3213 38.0587C14.3213 37.5429 14.7381 37.1261 15.2539 37.1261H28.3525C28.3523 37.0794 28.3536 37.031 28.3613 36.9845L28.3623 36.9825L29.6826 30.2609C29.6842 30.2489 29.6864 30.2389 29.6885 30.2325C29.69 30.228 29.6922 30.223 29.6934 30.2198C29.6945 30.2166 29.6954 30.2138 29.6963 30.2111L29.6982 30.2062L29.709 30.17C29.713 30.1554 29.7188 30.1347 29.7266 30.1154C29.7328 30.0997 29.7395 30.0859 29.7451 30.0734C29.7508 30.0605 29.7557 30.0488 29.7607 30.0363L29.7637 30.0284L29.7686 30.0216C29.7764 30.0098 29.7782 30.0044 29.7812 29.9952L29.7842 29.9874L29.7881 29.9806L31.9248 26.212L37.1279 17.0372V9.54993C37.1279 9.43662 37.0401 9.34778 36.9268 9.34778H13.7549ZM30.7236 34.5958L32.7744 32.7511L31.2549 31.8888L30.7236 34.5958ZM38.8691 17.7521L33.541 27.1378L31.8643 30.0919L34.0107 31.3087L35.6885 28.3546L37.2471 25.6056L45.668 10.7755L43.5205 9.55872L38.8691 17.7521ZM46.1826 6.04797C45.8681 5.91725 45.5176 6.0296 45.3525 6.31946L44.4404 7.93079L46.5879 9.14758L47.5 7.53625L47.5508 7.4259C47.6415 7.16197 47.5469 6.85848 47.3076 6.68567V6.68469C47.2959 6.67732 47.2816 6.66924 47.2734 6.66321C47.2664 6.658 47.2597 6.65212 47.2539 6.64758C47.2525 6.6465 47.2503 6.64449 47.248 6.6427L46.1826 6.04797Z" fill="#2D4ED8" stroke="#2D4ED8" stroke-width="0.164359"/>
<path d="M15.2525 16.9696H32.6808C33.1512 16.9696 33.531 16.5899 33.531 16.1194C33.531 15.649 33.1512 15.2693 32.6808 15.2693H15.2525C14.7821 15.2693 14.4023 15.649 14.4023 16.1194C14.4023 16.5899 14.7878 16.9696 15.2525 16.9696Z" fill="#2D4ED8"/>
<path d="M15.2525 24.4407H29.2688C29.7393 24.4407 30.119 24.0609 30.119 23.5905C30.119 23.1201 29.7393 22.7404 29.2688 22.7404H15.2525C14.7821 22.7404 14.4023 23.1201 14.4023 23.5905C14.4023 24.0609 14.7878 24.4407 15.2525 24.4407Z" fill="#2D4ED8"/>
</svg>
