<svg width="53" height="52" viewBox="0 0 53 52" fill="none" xmlns="http://www.w3.org/2000/svg">
<mask id="path-1-outside-1_2967_315" maskUnits="userSpaceOnUse" x="0.640625" y="5.43958" width="52" height="41" fill="black">
<rect fill="white" x="0.640625" y="5.43958" width="52" height="41"/>
<path fill-rule="evenodd" clip-rule="evenodd" d="M10.452 36.6854C11.8364 38.0719 13.649 38.7652 15.4637 38.7652C17.2783 38.7652 19.0909 38.0719 20.4753 36.6854C21.8597 35.2988 22.5518 33.4834 22.5518 31.6659C22.5518 29.8484 21.8596 28.033 20.4753 26.6464C19.0909 25.2599 17.2783 24.5667 15.4637 24.5667C13.649 24.5667 11.8364 25.2599 10.452 26.6464C9.06762 28.033 8.37547 29.8484 8.37547 31.6659C8.37755 33.4813 9.06975 35.2988 10.452 36.6854ZM8.37755 37.0788L8.66233 36.7936C8.89929 37.108 9.15912 37.4078 9.44392 37.693C9.7287 37.9782 10.0301 38.2405 10.3419 38.4758L10.0571 38.761L8.37755 37.0788ZM10.5643 40.2745L6.09938 44.7464C5.59011 45.2565 4.92081 45.5105 4.25143 45.5105C3.58206 45.5105 2.9128 45.2565 2.40349 44.7464C1.89422 44.2364 1.64062 43.566 1.64062 42.8956C1.64062 42.2253 1.89422 41.5549 2.40349 41.0448L7.88501 35.5547C7.2614 34.3368 6.94962 33.0023 6.94962 31.6678C6.94962 29.486 7.78108 27.3042 9.44192 25.6389C10.7619 24.3169 12.4081 23.5195 14.1231 23.2468V22.9887H8.60003C8.20717 22.9887 7.88708 22.668 7.88708 22.2746V10.2765C7.88708 9.22096 8.31736 8.26125 9.01164 7.56589C9.70592 6.87053 10.6642 6.43958 11.718 6.43958H39.5742C39.8236 6.43958 40.071 6.46456 40.3121 6.51244C40.4763 6.54367 40.6384 6.58947 40.7985 6.6436C41.4096 6.51036 42.0415 6.43958 42.6921 6.43958C45.1304 6.43958 47.34 7.43057 48.9383 9.03154C50.5389 10.6325 51.5283 12.8435 51.5283 15.2875C51.5283 17.7315 50.5389 19.9426 48.9404 21.5434C47.4978 22.9882 45.5626 23.9334 43.4073 24.1062V45.1669C43.4073 45.5603 43.0872 45.8809 42.6943 45.8809C42.5654 45.8809 42.4428 45.8455 42.3389 45.7852L37.3002 43.0475L33.3716 45.7518C33.1325 45.9163 32.8291 45.9142 32.5983 45.7706L28.2186 43.0641L24.4354 45.7456C24.1943 45.9163 23.8825 45.9142 23.6476 45.7664V45.7685L19.376 43.06L15.2312 45.7706C14.9027 45.985 14.4621 45.8913 14.2479 45.5603C14.171 45.4395 14.1336 45.3063 14.1336 45.1731H14.1315V40.0849C13.2544 39.9454 12.3959 39.6685 11.5873 39.2542L10.5643 40.2745ZM9.05102 39.7728L5.0912 43.7388C4.86047 43.9699 4.55699 44.0844 4.25143 44.0844C3.94588 44.0844 3.64241 43.9699 3.41167 43.7388C3.18095 43.5077 3.06662 43.2038 3.06662 42.8977C3.06662 42.5917 3.18094 42.2878 3.41167 42.0567L7.3715 38.0907L9.05102 39.7728ZM14.838 7.86796H37.8799C37.3623 8.20522 36.8822 8.59663 36.4477 9.03174C34.8493 10.6327 33.8598 12.8437 33.8598 15.2877C33.8598 17.7317 34.8493 19.9428 36.4477 21.5436C37.8882 22.9884 39.8256 23.9336 41.9809 24.1064V43.9679L37.597 41.5883C37.3309 41.4426 37.0129 41.4863 36.7946 41.6716L32.947 44.3198L28.5611 41.6092C28.2992 41.4468 27.9749 41.4759 27.7463 41.6571L24.0005 44.3115L19.7414 41.6113C19.4919 41.4551 19.1822 41.4718 18.9556 41.63L15.5487 43.8576V40.1894C17.6981 40.1685 19.8412 39.3358 21.481 37.6932C23.1439 36.0276 23.9733 33.8458 23.9733 31.6643C23.9733 29.4827 23.1418 27.3006 21.481 25.6354C19.8409 23.9928 17.6978 23.16 15.5487 23.1392V10.275C15.5487 9.36524 15.2286 8.52625 14.6944 7.86628H14.8295L14.838 7.86796ZM47.9319 10.0414C46.5912 8.69864 44.7391 7.86796 42.6937 7.86796C40.6483 7.86796 38.7963 8.69864 37.4555 10.0414C36.1148 11.3842 35.2854 13.2392 35.2854 15.2878C35.2854 17.3364 36.1148 19.1914 37.4555 20.5342C38.7962 21.877 40.6483 22.7077 42.6937 22.7077C44.7391 22.7077 46.5912 21.877 47.9319 20.5342C49.2726 19.1914 50.102 17.3364 50.102 15.2878C50.102 13.2392 49.2726 11.3843 47.9319 10.0414ZM11.722 7.8679C11.0609 7.8679 10.4602 8.13855 10.0237 8.57573C9.58719 9.01293 9.31698 9.61459 9.31698 10.2766V21.5606H14.127V10.2766C14.127 9.61459 13.8568 9.01292 13.4203 8.57573C12.9837 8.13854 12.3809 7.8679 11.722 7.8679ZM27.2326 32.7755H39.5904C39.9832 32.7755 40.3033 32.4549 40.3033 32.0614C40.3033 31.6679 39.9832 31.3473 39.5904 31.3473H27.2326C26.8397 31.3473 26.5197 31.6679 26.5197 32.0614C26.5197 32.4549 26.8398 32.7755 27.2326 32.7755ZM27.2326 27.3355H39.5904C39.9832 27.3355 40.3033 27.0149 40.3033 26.6214C40.3033 26.228 39.9832 25.9074 39.5904 25.9074L27.2326 25.9095C26.8397 25.9095 26.5197 26.2301 26.5197 26.6235C26.5197 27.017 26.8398 27.3355 27.2326 27.3355ZM27.2326 21.8977H32.492C32.8849 21.8977 33.205 21.5791 33.205 21.1836C33.205 20.7901 32.8848 20.4695 32.492 20.4695L27.2326 20.4716C26.8397 20.4716 26.5197 20.7922 26.5197 21.1857C26.5197 21.5792 26.8398 21.8977 27.2326 21.8977ZM17.9431 12.9641C17.5503 12.9641 17.2302 13.2826 17.2302 13.6782V16.699C17.2302 17.0925 17.5503 17.4131 17.9431 17.4131H30.2381C30.631 17.4131 30.951 17.0925 30.951 16.699V13.6782C30.951 13.2847 30.6309 12.9641 30.2381 12.9641H17.9431ZM29.5256 13.9348H18.6562V16.2798H29.5256V13.9348Z"/>
</mask>
<path fill-rule="evenodd" clip-rule="evenodd" d="M10.452 36.6854C11.8364 38.0719 13.649 38.7652 15.4637 38.7652C17.2783 38.7652 19.0909 38.0719 20.4753 36.6854C21.8597 35.2988 22.5518 33.4834 22.5518 31.6659C22.5518 29.8484 21.8596 28.033 20.4753 26.6464C19.0909 25.2599 17.2783 24.5667 15.4637 24.5667C13.649 24.5667 11.8364 25.2599 10.452 26.6464C9.06762 28.033 8.37547 29.8484 8.37547 31.6659C8.37755 33.4813 9.06975 35.2988 10.452 36.6854ZM8.37755 37.0788L8.66233 36.7936C8.89929 37.108 9.15912 37.4078 9.44392 37.693C9.7287 37.9782 10.0301 38.2405 10.3419 38.4758L10.0571 38.761L8.37755 37.0788ZM10.5643 40.2745L6.09938 44.7464C5.59011 45.2565 4.92081 45.5105 4.25143 45.5105C3.58206 45.5105 2.9128 45.2565 2.40349 44.7464C1.89422 44.2364 1.64062 43.566 1.64062 42.8956C1.64062 42.2253 1.89422 41.5549 2.40349 41.0448L7.88501 35.5547C7.2614 34.3368 6.94962 33.0023 6.94962 31.6678C6.94962 29.486 7.78108 27.3042 9.44192 25.6389C10.7619 24.3169 12.4081 23.5195 14.1231 23.2468V22.9887H8.60003C8.20717 22.9887 7.88708 22.668 7.88708 22.2746V10.2765C7.88708 9.22096 8.31736 8.26125 9.01164 7.56589C9.70592 6.87053 10.6642 6.43958 11.718 6.43958H39.5742C39.8236 6.43958 40.071 6.46456 40.3121 6.51244C40.4763 6.54367 40.6384 6.58947 40.7985 6.6436C41.4096 6.51036 42.0415 6.43958 42.6921 6.43958C45.1304 6.43958 47.34 7.43057 48.9383 9.03154C50.5389 10.6325 51.5283 12.8435 51.5283 15.2875C51.5283 17.7315 50.5389 19.9426 48.9404 21.5434C47.4978 22.9882 45.5626 23.9334 43.4073 24.1062V45.1669C43.4073 45.5603 43.0872 45.8809 42.6943 45.8809C42.5654 45.8809 42.4428 45.8455 42.3389 45.7852L37.3002 43.0475L33.3716 45.7518C33.1325 45.9163 32.8291 45.9142 32.5983 45.7706L28.2186 43.0641L24.4354 45.7456C24.1943 45.9163 23.8825 45.9142 23.6476 45.7664V45.7685L19.376 43.06L15.2312 45.7706C14.9027 45.985 14.4621 45.8913 14.2479 45.5603C14.171 45.4395 14.1336 45.3063 14.1336 45.1731H14.1315V40.0849C13.2544 39.9454 12.3959 39.6685 11.5873 39.2542L10.5643 40.2745ZM9.05102 39.7728L5.0912 43.7388C4.86047 43.9699 4.55699 44.0844 4.25143 44.0844C3.94588 44.0844 3.64241 43.9699 3.41167 43.7388C3.18095 43.5077 3.06662 43.2038 3.06662 42.8977C3.06662 42.5917 3.18094 42.2878 3.41167 42.0567L7.3715 38.0907L9.05102 39.7728ZM14.838 7.86796H37.8799C37.3623 8.20522 36.8822 8.59663 36.4477 9.03174C34.8493 10.6327 33.8598 12.8437 33.8598 15.2877C33.8598 17.7317 34.8493 19.9428 36.4477 21.5436C37.8882 22.9884 39.8256 23.9336 41.9809 24.1064V43.9679L37.597 41.5883C37.3309 41.4426 37.0129 41.4863 36.7946 41.6716L32.947 44.3198L28.5611 41.6092C28.2992 41.4468 27.9749 41.4759 27.7463 41.6571L24.0005 44.3115L19.7414 41.6113C19.4919 41.4551 19.1822 41.4718 18.9556 41.63L15.5487 43.8576V40.1894C17.6981 40.1685 19.8412 39.3358 21.481 37.6932C23.1439 36.0276 23.9733 33.8458 23.9733 31.6643C23.9733 29.4827 23.1418 27.3006 21.481 25.6354C19.8409 23.9928 17.6978 23.16 15.5487 23.1392V10.275C15.5487 9.36524 15.2286 8.52625 14.6944 7.86628H14.8295L14.838 7.86796ZM47.9319 10.0414C46.5912 8.69864 44.7391 7.86796 42.6937 7.86796C40.6483 7.86796 38.7963 8.69864 37.4555 10.0414C36.1148 11.3842 35.2854 13.2392 35.2854 15.2878C35.2854 17.3364 36.1148 19.1914 37.4555 20.5342C38.7962 21.877 40.6483 22.7077 42.6937 22.7077C44.7391 22.7077 46.5912 21.877 47.9319 20.5342C49.2726 19.1914 50.102 17.3364 50.102 15.2878C50.102 13.2392 49.2726 11.3843 47.9319 10.0414ZM11.722 7.8679C11.0609 7.8679 10.4602 8.13855 10.0237 8.57573C9.58719 9.01293 9.31698 9.61459 9.31698 10.2766V21.5606H14.127V10.2766C14.127 9.61459 13.8568 9.01292 13.4203 8.57573C12.9837 8.13854 12.3809 7.8679 11.722 7.8679ZM27.2326 32.7755H39.5904C39.9832 32.7755 40.3033 32.4549 40.3033 32.0614C40.3033 31.6679 39.9832 31.3473 39.5904 31.3473H27.2326C26.8397 31.3473 26.5197 31.6679 26.5197 32.0614C26.5197 32.4549 26.8398 32.7755 27.2326 32.7755ZM27.2326 27.3355H39.5904C39.9832 27.3355 40.3033 27.0149 40.3033 26.6214C40.3033 26.228 39.9832 25.9074 39.5904 25.9074L27.2326 25.9095C26.8397 25.9095 26.5197 26.2301 26.5197 26.6235C26.5197 27.017 26.8398 27.3355 27.2326 27.3355ZM27.2326 21.8977H32.492C32.8849 21.8977 33.205 21.5791 33.205 21.1836C33.205 20.7901 32.8848 20.4695 32.492 20.4695L27.2326 20.4716C26.8397 20.4716 26.5197 20.7922 26.5197 21.1857C26.5197 21.5792 26.8398 21.8977 27.2326 21.8977ZM17.9431 12.9641C17.5503 12.9641 17.2302 13.2826 17.2302 13.6782V16.699C17.2302 17.0925 17.5503 17.4131 17.9431 17.4131H30.2381C30.631 17.4131 30.951 17.0925 30.951 16.699V13.6782C30.951 13.2847 30.6309 12.9641 30.2381 12.9641H17.9431ZM29.5256 13.9348H18.6562V16.2798H29.5256V13.9348Z" fill="#2D4ED8"/>
<path fill-rule="evenodd" clip-rule="evenodd" d="M10.452 36.6854C11.8364 38.0719 13.649 38.7652 15.4637 38.7652C17.2783 38.7652 19.0909 38.0719 20.4753 36.6854C21.8597 35.2988 22.5518 33.4834 22.5518 31.6659C22.5518 29.8484 21.8596 28.033 20.4753 26.6464C19.0909 25.2599 17.2783 24.5667 15.4637 24.5667C13.649 24.5667 11.8364 25.2599 10.452 26.6464C9.06762 28.033 8.37547 29.8484 8.37547 31.6659C8.37755 33.4813 9.06975 35.2988 10.452 36.6854ZM8.37755 37.0788L8.66233 36.7936C8.89929 37.108 9.15912 37.4078 9.44392 37.693C9.7287 37.9782 10.0301 38.2405 10.3419 38.4758L10.0571 38.761L8.37755 37.0788ZM10.5643 40.2745L6.09938 44.7464C5.59011 45.2565 4.92081 45.5105 4.25143 45.5105C3.58206 45.5105 2.9128 45.2565 2.40349 44.7464C1.89422 44.2364 1.64062 43.566 1.64062 42.8956C1.64062 42.2253 1.89422 41.5549 2.40349 41.0448L7.88501 35.5547C7.2614 34.3368 6.94962 33.0023 6.94962 31.6678C6.94962 29.486 7.78108 27.3042 9.44192 25.6389C10.7619 24.3169 12.4081 23.5195 14.1231 23.2468V22.9887H8.60003C8.20717 22.9887 7.88708 22.668 7.88708 22.2746V10.2765C7.88708 9.22096 8.31736 8.26125 9.01164 7.56589C9.70592 6.87053 10.6642 6.43958 11.718 6.43958H39.5742C39.8236 6.43958 40.071 6.46456 40.3121 6.51244C40.4763 6.54367 40.6384 6.58947 40.7985 6.6436C41.4096 6.51036 42.0415 6.43958 42.6921 6.43958C45.1304 6.43958 47.34 7.43057 48.9383 9.03154C50.5389 10.6325 51.5283 12.8435 51.5283 15.2875C51.5283 17.7315 50.5389 19.9426 48.9404 21.5434C47.4978 22.9882 45.5626 23.9334 43.4073 24.1062V45.1669C43.4073 45.5603 43.0872 45.8809 42.6943 45.8809C42.5654 45.8809 42.4428 45.8455 42.3389 45.7852L37.3002 43.0475L33.3716 45.7518C33.1325 45.9163 32.8291 45.9142 32.5983 45.7706L28.2186 43.0641L24.4354 45.7456C24.1943 45.9163 23.8825 45.9142 23.6476 45.7664V45.7685L19.376 43.06L15.2312 45.7706C14.9027 45.985 14.4621 45.8913 14.2479 45.5603C14.171 45.4395 14.1336 45.3063 14.1336 45.1731H14.1315V40.0849C13.2544 39.9454 12.3959 39.6685 11.5873 39.2542L10.5643 40.2745ZM9.05102 39.7728L5.0912 43.7388C4.86047 43.9699 4.55699 44.0844 4.25143 44.0844C3.94588 44.0844 3.64241 43.9699 3.41167 43.7388C3.18095 43.5077 3.06662 43.2038 3.06662 42.8977C3.06662 42.5917 3.18094 42.2878 3.41167 42.0567L7.3715 38.0907L9.05102 39.7728ZM14.838 7.86796H37.8799C37.3623 8.20522 36.8822 8.59663 36.4477 9.03174C34.8493 10.6327 33.8598 12.8437 33.8598 15.2877C33.8598 17.7317 34.8493 19.9428 36.4477 21.5436C37.8882 22.9884 39.8256 23.9336 41.9809 24.1064V43.9679L37.597 41.5883C37.3309 41.4426 37.0129 41.4863 36.7946 41.6716L32.947 44.3198L28.5611 41.6092C28.2992 41.4468 27.9749 41.4759 27.7463 41.6571L24.0005 44.3115L19.7414 41.6113C19.4919 41.4551 19.1822 41.4718 18.9556 41.63L15.5487 43.8576V40.1894C17.6981 40.1685 19.8412 39.3358 21.481 37.6932C23.1439 36.0276 23.9733 33.8458 23.9733 31.6643C23.9733 29.4827 23.1418 27.3006 21.481 25.6354C19.8409 23.9928 17.6978 23.16 15.5487 23.1392V10.275C15.5487 9.36524 15.2286 8.52625 14.6944 7.86628H14.8295L14.838 7.86796ZM47.9319 10.0414C46.5912 8.69864 44.7391 7.86796 42.6937 7.86796C40.6483 7.86796 38.7963 8.69864 37.4555 10.0414C36.1148 11.3842 35.2854 13.2392 35.2854 15.2878C35.2854 17.3364 36.1148 19.1914 37.4555 20.5342C38.7962 21.877 40.6483 22.7077 42.6937 22.7077C44.7391 22.7077 46.5912 21.877 47.9319 20.5342C49.2726 19.1914 50.102 17.3364 50.102 15.2878C50.102 13.2392 49.2726 11.3843 47.9319 10.0414ZM11.722 7.8679C11.0609 7.8679 10.4602 8.13855 10.0237 8.57573C9.58719 9.01293 9.31698 9.61459 9.31698 10.2766V21.5606H14.127V10.2766C14.127 9.61459 13.8568 9.01292 13.4203 8.57573C12.9837 8.13854 12.3809 7.8679 11.722 7.8679ZM27.2326 32.7755H39.5904C39.9832 32.7755 40.3033 32.4549 40.3033 32.0614C40.3033 31.6679 39.9832 31.3473 39.5904 31.3473H27.2326C26.8397 31.3473 26.5197 31.6679 26.5197 32.0614C26.5197 32.4549 26.8398 32.7755 27.2326 32.7755ZM27.2326 27.3355H39.5904C39.9832 27.3355 40.3033 27.0149 40.3033 26.6214C40.3033 26.228 39.9832 25.9074 39.5904 25.9074L27.2326 25.9095C26.8397 25.9095 26.5197 26.2301 26.5197 26.6235C26.5197 27.017 26.8398 27.3355 27.2326 27.3355ZM27.2326 21.8977H32.492C32.8849 21.8977 33.205 21.5791 33.205 21.1836C33.205 20.7901 32.8848 20.4695 32.492 20.4695L27.2326 20.4716C26.8397 20.4716 26.5197 20.7922 26.5197 21.1857C26.5197 21.5792 26.8398 21.8977 27.2326 21.8977ZM17.9431 12.9641C17.5503 12.9641 17.2302 13.2826 17.2302 13.6782V16.699C17.2302 17.0925 17.5503 17.4131 17.9431 17.4131H30.2381C30.631 17.4131 30.951 17.0925 30.951 16.699V13.6782C30.951 13.2847 30.6309 12.9641 30.2381 12.9641H17.9431ZM29.5256 13.9348H18.6562V16.2798H29.5256V13.9348Z" stroke="#2D4ED8" stroke-width="0.393611" mask="url(#path-1-outside-1_2967_315)"/>
<path d="M40.0609 22.1923L37.8864 18.3956V17.8893H38.1396C38.5461 17.8893 38.8874 17.851 39.1635 17.7743C39.4473 17.6976 39.6697 17.571 39.8308 17.3946C39.9919 17.2182 40.0878 16.9766 40.1184 16.6698H37.8864V15.9335H40.1069C40.0532 15.6497 39.9459 15.4196 39.7848 15.2432C39.6237 15.0591 39.4051 14.9249 39.129 14.8405C38.8605 14.7561 38.5307 14.7139 38.1396 14.7139H37.8864V13.9776H42.6496V14.7139H40.4751C40.6515 14.8597 40.7972 15.0322 40.9123 15.2317C41.0273 15.4311 41.1002 15.665 41.1309 15.9335H42.6496V16.6698H41.1539C41.1002 17.2297 40.8854 17.6669 40.5096 17.9814C40.1414 18.2882 39.6506 18.4838 39.037 18.5681L41.2344 22.1923H40.0609Z" fill="#2D4ED8"/>
</svg>
