<svg width="106" height="106" viewBox="0 0 106 106" fill="none" xmlns="http://www.w3.org/2000/svg">
<rect width="106" height="106" rx="2" fill="#2D4ED8"/>
<path d="M18.958 60.8937V36.2546C18.958 35.3774 19.67 34.6627 20.5499 34.6627H45.1891C45.5979 34.6627 46.0013 34.8197 46.3126 35.1283C46.9353 35.751 46.9353 36.7554 46.3126 37.3781L40.3836 43.307L58.0429 60.9663C58.6656 61.589 58.6656 62.5934 58.0429 63.2161L47.5166 73.7424C46.894 74.365 45.8895 74.365 45.2669 73.7424L27.6076 56.0831L21.6921 61.9985C21.4025 62.2963 20.9991 62.4777 20.5524 62.4777C19.6753 62.4777 18.9605 61.7657 18.9605 60.8858L18.958 60.8937ZM86.8513 43.9407V68.5798C86.8513 69.4569 86.1393 70.1717 85.2594 70.1717H60.6203C60.2115 70.1717 59.8081 70.0147 59.4968 69.706C58.8741 69.0834 58.8741 68.0789 59.4968 67.4563L65.4257 61.5273L47.7664 43.868C47.1437 43.2454 47.1437 42.2409 47.7664 41.6183L58.2927 31.092C58.9154 30.4693 59.9198 30.4693 60.5425 31.092L78.2017 48.7513L84.1172 42.8359C84.4069 42.538 84.8103 42.3567 85.2569 42.3567C86.1341 42.3567 86.8488 43.0686 86.8488 43.9486L86.8513 43.9407Z" fill="#F9FAFB"/>
</svg>
