<svg width="109" height="109" viewBox="0 0 109 109" fill="none" xmlns="http://www.w3.org/2000/svg">
<path d="M84.6135 53.6421C84.6135 69.8469 71.4769 82.9834 55.2722 82.9834C39.0674 82.9834 25.9308 69.8469 25.9308 53.6421C25.9308 37.4373 39.0674 24.3007 55.2722 24.3007C71.4769 24.3007 84.6135 37.4373 84.6135 53.6421Z" fill="#DADEEC"/>
<path d="M54.451 100.902C69.8802 100.937 84.3204 93.3049 92.9888 80.5329C101.651 67.7671 103.407 51.525 97.6772 37.2016C91.9469 22.873 79.4744 12.3249 64.3958 9.05386C49.3127 5.78776 33.5958 10.2186 22.4401 20.8831V15.4981C22.4401 14.6669 21.7729 13.9997 20.9417 13.9997C20.1164 13.9997 19.4433 14.6669 19.4433 15.4981V24.4828C19.4491 25.1208 19.8588 25.6827 20.4617 25.8817C20.6256 25.9168 20.7837 25.9461 20.9417 25.9812H29.9322C30.7575 25.9812 31.4306 25.3081 31.4306 24.4828C31.4306 23.6575 30.7575 22.9843 29.9322 22.9843H24.5707C34.9191 13.2388 49.3995 9.21179 63.2958 12.2145C77.1854 15.2171 88.7105 24.8632 94.1123 38.0097C99.5148 51.1559 98.0984 66.123 90.3312 78.022C82.564 89.9274 69.4357 97.2437 55.2232 97.5898C41.0116 97.9352 27.543 91.2624 19.2088 79.7556C10.868 68.2424 8.7257 53.364 13.4844 39.9712C13.7361 39.1985 13.3263 38.3732 12.5596 38.0981C11.7987 37.823 10.9558 38.2093 10.6632 38.9644C8.89548 43.9337 7.99418 49.1724 8.00003 54.452C8.01173 66.7672 12.9108 78.5736 21.6203 87.2824C30.3299 95.9912 42.1355 100.891 54.451 100.902Z" fill="#DADEEC"/>
<path d="M52.9119 70.889L45.6781 58.2701V55.2962H48.0894C49.0539 55.2962 49.8978 55.1622 50.6212 54.8943C51.3714 54.5996 51.9876 54.1843 52.4698 53.6485C52.9789 53.1127 53.3272 52.4697 53.5147 51.7195H45.6781V48.7456H53.4745C53.3138 48.049 53.0325 47.4328 52.6306 46.897C52.2555 46.3612 51.7465 45.9459 51.1035 45.6512C50.4873 45.3297 49.7371 45.1689 48.853 45.1689H45.6781V42.1951H63.8027V45.1689H57.4933C57.9487 45.678 58.3238 46.2272 58.6185 46.8166C58.94 47.406 59.1544 48.049 59.2615 48.7456H63.8027V51.7195H59.3419C59.074 53.7021 58.3104 55.256 57.0512 56.3813C55.792 57.4797 54.1711 58.2299 52.1885 58.6318L60.0653 70.889H52.9119Z" fill="white"/>
</svg>
