<svg width="81" height="81" viewBox="0 0 81 81" fill="none" xmlns="http://www.w3.org/2000/svg">
<path d="M65.8308 27.0723C61.574 17.6083 52.0634 11 41.0325 11C30.0231 11 20.5298 17.5825 16.2607 27.0149C10.7381 27.7421 6.44103 31.8814 6.04016 37.0074C6.01649 37.2477 6.00072 37.5015 6 37.7834C6 37.7855 6 37.7869 6 37.7891V37.7905C6 37.792 6 37.7934 6 37.7934C6 38.1319 6.01721 38.4661 6.0502 38.7952C6.05163 38.8088 6.0545 38.8203 6.05594 38.8332C6.08964 39.1509 6.13625 39.4657 6.19864 39.7748C6.20366 39.7963 6.21084 39.8178 6.21442 39.8394C6.27753 40.1391 6.35139 40.4353 6.44032 40.7257C6.44605 40.7437 6.45394 40.7609 6.45896 40.7781C6.55076 41.0721 6.65402 41.3611 6.77307 41.6444C6.77593 41.6523 6.78024 41.6594 6.78382 41.6666C8.25752 45.182 11.6754 47.8246 15.8469 48.5095C19.3386 56.2724 26.3686 62.1069 34.8702 63.9557C35.3543 66.8178 37.8384 69 40.8374 69C44.1843 69 46.8972 66.2871 46.8972 62.941C46.8972 59.5941 44.1843 56.8812 40.8374 56.8812C38.1453 56.8812 35.8656 58.6389 35.0767 61.0685C27.2471 59.2262 20.8682 53.586 17.9897 46.2075V45.3326V35.5057V30.4399C21.2311 20.8189 30.3315 13.8678 41.0318 13.8678C51.3319 13.8678 60.1505 20.3098 63.6866 29.3743V48.6866C70.3086 48.6866 75.6763 43.8087 75.6763 37.7898C75.677 32.4357 71.4287 27.9917 65.8308 27.0723Z" fill="#DADEEC"/>
<path d="M41.1811 21.1057C32.3669 21.1057 25.2207 28.2519 25.2207 37.0661C25.2207 45.8811 32.3669 53.0273 41.1811 53.0273C49.9954 53.0273 57.1423 45.8811 57.1423 37.0661C57.1423 28.2519 49.9954 21.1057 41.1811 21.1057ZM41.1811 50.1588C33.9625 50.1588 28.0892 44.2855 28.0892 37.0661C28.0892 29.8468 33.9618 23.9742 41.1811 23.9742C48.3998 23.9742 54.2738 29.8468 54.2738 37.0661C54.2738 44.2855 48.3998 50.1588 41.1811 50.1588Z" fill="#DADEEC"/>
<path d="M39.7495 35.6298H33.4746V38.4983H42.613L42.618 28.366H39.7495V35.6298Z" fill="#DADEEC"/>
</svg>
