<svg width="78" height="78" viewBox="0 0 78 78" fill="none" xmlns="http://www.w3.org/2000/svg">
<path d="M37.1884 70C35.7729 70 34.4258 69.3925 33.5126 68.3125C32.5993 67.2325 32.2112 65.815 32.4852 64.4425L36.024 45.2725H25.5673C24.1974 45.2725 22.896 44.665 22.0284 43.63C21.1608 42.595 20.8184 41.2225 21.0924 39.895L27.0056 10.6225C27.4394 8.53 29.3116 7 31.4806 7H42.8049C44.1748 7 45.4761 7.6075 46.3437 8.6425C47.2113 9.6775 47.5538 11.05 47.2798 12.3775L43.8095 29.5H53.3073C54.9055 29.5 56.3438 30.2875 57.1886 31.6375C58.0333 32.9875 58.1018 34.6075 57.3941 36.025L41.4807 67.39C40.6587 69.01 39.0149 70 37.1884 70ZM31.4806 11.5L25.5444 40.75H36.0012C37.3482 40.75 38.6268 41.335 39.5172 42.37C40.3848 43.405 40.7501 44.7325 40.4989 46.06L36.9601 65.23L37.1884 65.5C37.1884 65.5 37.3482 65.455 37.3939 65.365L53.3073 34H43.8095C42.4396 34 41.1382 33.3925 40.2706 32.3575C39.403 31.3225 39.0606 29.95 39.3345 28.6225L42.8049 11.5H31.4806Z" fill="#DADEEC"/>
</svg>
