<svg width="105" height="105" viewBox="0 0 105 105" fill="none" xmlns="http://www.w3.org/2000/svg">
<path d="M10 62.8953V32.048C10 30.9499 10.8914 30.055 11.993 30.055H42.8403C43.3521 30.055 43.8572 30.2516 44.2469 30.638C45.0265 31.4176 45.0265 32.6751 44.2469 33.4546L36.8241 40.8775L58.9329 62.9863C59.7125 63.7658 59.7125 65.0233 58.9329 65.8029L45.7544 78.9814C44.9748 79.761 43.7173 79.761 42.9378 78.9814L20.829 56.8726L13.423 64.2785C13.0604 64.6514 12.5554 64.8784 11.9961 64.8784C10.898 64.8784 10.0031 63.9871 10.0031 62.8854L10 62.8953ZM95 41.6707V72.5181C95 73.6162 94.1086 74.5111 93.007 74.5111H62.1597C61.6479 74.5111 61.1428 74.3145 60.7531 73.9281C59.9735 73.1485 59.9735 71.891 60.7531 71.1115L68.1759 63.6886L46.0671 41.5798C45.2875 40.8002 45.2875 39.5427 46.0671 38.7632L59.2456 25.5847C60.0252 24.8051 61.2827 24.8051 62.0622 25.5847L84.171 47.6935L91.577 40.2876C91.9396 39.9147 92.4446 39.6876 93.0039 39.6876C94.102 39.6876 94.9969 40.579 94.9969 41.6806L95 41.6707Z" fill="#DADEEC"/>
</svg>
