<svg width="47" height="47" viewBox="0 0 47 47" fill="none" xmlns="http://www.w3.org/2000/svg">
<rect width="46.0205" height="46.0205" rx="1.64359" fill="#2D4ED8"/>
<path d="M35.4031 16.4038C33.2351 11.5837 28.3912 8.21802 22.7731 8.21802C17.1659 8.21802 12.3308 11.5706 10.1565 16.3746C7.34382 16.7449 5.15529 18.8531 4.95112 21.4639C4.93906 21.5862 4.93103 21.7155 4.93066 21.8591C4.93066 21.8602 4.93066 21.8609 4.93066 21.862V21.8627C4.93066 21.8634 4.93066 21.8642 4.93066 21.8642C4.93066 22.0366 4.93943 22.2068 4.95623 22.3744C4.95696 22.3814 4.95842 22.3872 4.95915 22.3938C4.97632 22.5556 5.00006 22.7159 5.03184 22.8733C5.03439 22.8843 5.03805 22.8953 5.03987 22.9062C5.07201 23.0589 5.10963 23.2097 5.15492 23.3576C5.15784 23.3668 5.16186 23.3755 5.16442 23.3843C5.21117 23.5341 5.26376 23.6813 5.32439 23.8255C5.32586 23.8295 5.32805 23.8332 5.32987 23.8368C6.08044 25.6273 7.82119 26.9732 9.9458 27.322C11.7242 31.2757 15.3046 34.2473 19.6346 35.1889C19.8811 36.6466 21.1463 37.758 22.6737 37.758C24.3783 37.758 25.76 36.3763 25.76 34.6721C25.76 32.9675 24.3783 31.5858 22.6737 31.5858C21.3026 31.5858 20.1415 32.481 19.7398 33.7185C15.752 32.7801 12.5032 29.9075 11.0371 26.1496V25.704V20.6991V18.119C12.688 13.2189 17.3229 9.67862 22.7727 9.67862C28.0187 9.67862 32.5101 12.9596 34.3111 17.5762V27.4122C37.6837 27.4122 40.4175 24.9278 40.4175 21.8623C40.4179 19.1355 38.2542 16.8721 35.4031 16.4038Z" fill="white"/>
<path d="M22.8485 13.365C18.3594 13.365 14.7197 17.0046 14.7197 21.4938C14.7197 25.9834 18.3594 29.623 22.8485 29.623C27.3377 29.623 30.9777 25.9834 30.9777 21.4938C30.9777 17.0046 27.3377 13.365 22.8485 13.365ZM22.8485 28.162C19.172 28.162 16.1807 25.1707 16.1807 21.4938C16.1807 17.8169 19.1717 14.826 22.8485 14.826C26.5251 14.826 29.5168 17.8169 29.5168 21.4938C29.5168 25.1707 26.5251 28.162 22.8485 28.162Z" fill="white"/>
<path d="M22.1197 20.7624H18.9238V22.2234H23.5781L23.5807 17.0629H22.1197V20.7624Z" fill="white"/>
</svg>
